<?xml version="1.0" encoding="UTF-8"?>
<svg width="654px" height="901px" viewBox="0 0 654 901" version="1.1" xmlns="http://www.w3.org/2000/svg" xmlns:xlink="http://www.w3.org/1999/xlink">
    <!-- Generator: Sketch 57.1 (83088) - https://sketch.com -->
    <title>Group 2</title>
    <desc>Created with Sketch.</desc>
    <defs>
        <linearGradient x1="50%" y1="100%" x2="50%" y2="0%" id="linearGradient-1">
            <stop stop-color="#7013EA" offset="0%"></stop>
            <stop stop-color="#DF90CB" offset="100%"></stop>
        </linearGradient>
        <path d="M509.43349,492.774053 C663.15124,617.234076 698.501401,756.971468 594.206672,813.727116 C489.911943,870.482763 419.592464,899.574936 269.361714,863.510667 C119.130964,827.446398 6.10311248,662.627147 1.0786335,471.184429 C-3.94584549,279.741711 41.0227705,-32.9731825 293.58095,4 C546.13913,40.9731825 355.71574,368.31403 509.43349,492.774053 Z" id="path-2"></path>
        <linearGradient x1="50%" y1="100%" x2="50%" y2="0%" id="linearGradient-4">
            <stop stop-color="#5E12C2" offset="0%"></stop>
            <stop stop-color="#B35E9D" offset="100%"></stop>
        </linearGradient>
        <linearGradient x1="4.8223371%" y1="46.1223542%" x2="100%" y2="46.1223542%" id="linearGradient-5">
            <stop stop-color="#E7E7B6" offset="0%"></stop>
            <stop stop-color="#E7E3D6" stop-opacity="0" offset="100%"></stop>
        </linearGradient>
        <path d="M60.6690221,4.92022692 C60.6690221,33.9743934 56.9817449,50.2926955 42.3034597,55.3814259 C38.5182728,55.7098933 34.6666936,55.8783387 30.7613933,55.8783387 C26.4624982,55.8783387 22.2286984,55.6742288 18.0770773,55.2785199 C3.63883818,50.0770636 0,33.7829233 0,4.92022692 C0,4.1879029 0.00234258573,3.45842001 0.00714471503,2.73196927 L60.6618774,2.73196927 C60.6666795,3.45842001 60.6690221,4.1879029 60.6690221,4.92022692 Z" id="path-6"></path>
        <path d="M60.6690221,4.92022692 C60.6690221,33.9743934 56.9817449,50.2926955 42.3034597,55.3814259 C38.5180928,55.7099011 34.6666023,55.8783387 30.7613933,55.8783387 C26.6112584,55.8783387 22.5217917,55.6881105 18.5083636,55.3189108 L18.4921431,55.3116754 C14.7836326,54.0055022 30.4390089,50.4547014 22.9735425,42.4247085 C15.5080761,34.3947156 17.1863037,26.2016279 29.548819,26.2016279 C41.9113343,26.2016279 44.6257643,11.4674626 40.4872129,8.6210496 C32.5288437,3.14744222 43.0153312,6.7213638 43.0153312,2.73182989 L60.6618774,2.73196927 C60.6666795,3.45842001 60.6690221,4.1879029 60.6690221,4.92022692 Z" id="path-8"></path>
        <linearGradient x1="50%" y1="0%" x2="50%" y2="100%" id="linearGradient-10">
            <stop stop-color="#D787CD" offset="0%"></stop>
            <stop stop-color="#A955A2" offset="100%"></stop>
        </linearGradient>
    </defs>
    <g id="Page-1" stroke="none" stroke-width="1" fill="none" fill-rule="evenodd">
        <g id="Artboard" transform="translate(-115.000000, -41.000000)">
            <g id="Group-2" transform="translate(114.000000, 41.000000)">
                <g id="Rectangle-Copy-3-+-Group-Mask" transform="translate(0.664793, 21.000000)">
                    <mask id="mask-3" fill="white">
                        <use xlink:href="#path-2"></use>
                    </mask>
                    <use id="Mask" fill="url(#linearGradient-1)" xlink:href="#path-2"></use>
                    <path d="M354.683686,308.375184 C304.61513,201.158728 190.062086,-45.7568272 449.000035,28.7940572 C510.466008,46.4907397 584.911065,51.6974681 672.335207,44.4142426 L672.335207,857.728891 C413.241765,996.757036 239.023761,996.757036 149.681195,857.728891 C15.6673462,649.186674 484.608406,586.595072 354.683686,308.375184 Z" id="Rectangle-Copy-3" fill="url(#linearGradient-4)" mask="url(#mask-3)"></path>
                    <g id="Group" mask="url(#mask-3)">
                        <g transform="translate(-28.664793, 287.000000)">
                            <path d="M52.5150263,48.9794941 L433.361977,0 L394.402915,260.115466 C380.769802,270.262245 367.495014,278.273021 354.57855,284.147794 C341.662086,290.022567 319.618744,298.075474 288.448524,308.306517 L232.223281,297.998856 L180.799369,298.495547 L180.799369,308.306517 L94.7858593,288.714376 L52.5150263,48.9794941 Z" id="Path-18" fill="url(#linearGradient-5)" opacity="0.660435268"></path>
                            <g id="Humaaan" stroke-width="1" fill="none" transform="translate(327.644795, 332.684429) scale(-1, 1) translate(-327.644795, -332.684429) translate(92.644795, 58.184429)">
                                <g id="Head/Front" transform="translate(103.558848, 0.000000)">
                                    <g id="Head" transform="translate(10.086779, 8.088372)" fill="#EFCBD7">
                                        <path d="M61.3343044,14.685341 C70.6119964,31.9664374 69.5095654,75.8013717 57.5189751,78.8899856 C52.7371892,80.121709 42.5506143,77.1045199 32.1830094,70.8598438 L38.6903267,116.866919 L0.265498361,116.866919 L13.4927388,55.2525028 C6.1158353,46.599054 1.12310379,35.9942829 1.95743375,24.1113936 C4.36147335,-10.1279818 52.0566124,-2.59575548 61.3343044,14.685341 Z"></path>
                                    </g>
                                    <path d="M16.8448546,74.0890379 C12.0221605,52.6482063 -1.71690813,38.0327099 0.381377206,28.449575 C1.7802341,22.0608185 5.50860707,18.0878751 11.5664961,16.5307449 C14.699579,3.86464518 24.804414,-1.5227407 41.8810013,0.368587239 C67.4958822,3.20557915 83.1297797,13.8358548 76.378272,37.2271001 C70.1720488,37.2271001 62.679811,34.9841648 52.3196034,38.8270354 C49.0323513,40.0463628 46.6812122,43.8276039 45.2661862,50.1707588 L40.5844493,50.1707588 C36.0406264,42.6431681 31.5603879,39.876984 27.1437338,41.8722064 C22.7270798,43.8674287 21.7231025,48.7138318 24.131802,56.4114157 L21.8255732,74.0890379 L16.8448546,74.0890379 Z" id="Hair" fill="#584A38"></path>
                                </g>
                                <g id="Bottom/Skinny-Jeans-1" transform="translate(0.000000, 272.118640)">
                                    <g id="Seat" transform="translate(0.000000, 64.570525)" fill="#E0E0E0">
                                        <path d="M229.327543,0 C232.862165,-6.49299601e-16 235.727543,2.8653776 235.727543,6.4 L235.727543,191.923755 C235.727543,195.458377 232.862165,198.323755 229.327543,198.323755 L6.70927336,198.323755 C3.17465096,198.323755 0.30927336,195.458377 0.30927336,191.923755 L0.30927336,6.4 C0.30927336,2.8653776 3.17465096,-7.34430618e-15 6.70927336,0 L229.327543,0 Z M189.285968,44.7827833 L46.7508485,44.7827833 C45.8671929,44.7827833 45.1508485,45.4991277 45.1508485,46.3827833 L45.1508485,46.3827833 L45.1508485,151.940971 C45.1508485,152.824627 45.8671929,153.540971 46.7508485,153.540971 L46.7508485,153.540971 L189.285968,153.540971 C190.169623,153.540971 190.885968,152.824627 190.885968,151.940971 L190.885968,151.940971 L190.885968,46.3827833 C190.885968,45.4991277 190.169623,44.7827833 189.285968,44.7827833 L189.285968,44.7827833 Z"></path>
                                    </g>
                                    <path d="M389.734434,257.398852 C358.173454,218.907612 336.81854,190.371927 325.669694,171.791798 C306.580162,139.978107 290.956292,111.669798 286.025788,100.856151 C274.268369,75.0696233 313.093267,62.9949608 321.880223,75.0226526 C335.17963,93.2270418 363.582444,150.511129 407.088665,246.874914 L389.734434,257.398852 Z" id="LegLower" fill="#B28B67"></path>
                                    <path d="M325.060252,246.207598 L266.323446,98.5418363 C253.760812,71.6233524 314.428105,53.9291787 323.660692,66.4565017 C344.621523,94.8974029 394.44057,207.092633 400.685502,215.566128 L325.060252,246.207598 Z" id="LegLower" fill="#2F3676"></path>
                                    <g id="Lower-Leg" transform="translate(235.650802, 168.711092) rotate(39.000000) translate(-235.650802, -168.711092) translate(210.650802, 80.711092)" fill="#EECDD6">
                                        <path d="M3.08287712,167.338232 C1.47146284,147.19299 -1.52234517,77.4543595 1.47308143,45.1749309 C2.33384691,35.8991177 3.24072112,26.9308943 4.15463223,18.5179053 C6.87109946,-6.48847507 53.2973873,-5.69800751 49.610558,18.059307 C40.428896,77.2244097 24.2681239,160.140875 23.1098207,167.305325 C21.4864093,177.346607 4.09560075,179.998888 3.08287712,167.338232 Z" id="LegLower"></path>
                                    </g>
                                    <g id="Accessories/Shoe/Flat-Sneaker" transform="translate(214.193380, 223.825089) rotate(30.000000) translate(-214.193380, -223.825089) translate(165.369262, 191.850076)" fill="#FFFFFF">
                                        <path d="M5.35846041,38.167264 C2.87504236,44.2028862 1.63333333,48.6034893 1.63333333,51.3690733 C1.63333333,54.2543313 2.12400987,58.4646401 3.10536294,64 C6.52219591,64 37.2298492,64 95.2283229,64 C97.622272,56.2472116 96.2403457,52.0617306 91.082544,51.443557 C85.9247422,50.8253835 81.6400687,50.2672222 78.2285234,49.7690733 L34.2474745,30.5622447 C34.0450237,30.473833 33.8092331,30.56628 33.7208214,30.7687308 C33.7201058,30.7703694 33.7194013,30.7720127 33.7187077,30.7736607 L30.4832481,38.4619121 L30.4832481,38.4619121 C25.7084727,40.6442435 21.8284719,41.7354091 18.8432459,41.7354091 C15.9906641,41.7354091 11.8598115,40.4080981 6.45068802,37.753476 L6.45066382,37.7535253 C6.05405433,37.5588823 5.57474945,37.7226084 5.3801064,38.1192179 C5.37236537,38.1349912 5.36514613,38.1510153 5.35846041,38.167264 Z" id="shoe"></path>
                                    </g>
                                    <g id="Accessories/Shoe/Flat-Sneaker" transform="translate(371.871268, 211.035084)" fill="#FFFFFF">
                                        <path d="M5.35846041,38.167264 C2.87504236,44.2028862 1.63333333,48.6034893 1.63333333,51.3690733 C1.63333333,54.2543313 2.12400987,58.4646401 3.10536294,64 C6.52219591,64 37.2298492,64 95.2283229,64 C97.622272,56.2472116 96.2403457,52.0617306 91.082544,51.443557 C85.9247422,50.8253835 81.6400687,50.2672222 78.2285234,49.7690733 L34.2474745,30.5622447 C34.0450237,30.473833 33.8092331,30.56628 33.7208214,30.7687308 C33.7201058,30.7703694 33.7194013,30.7720127 33.7187077,30.7736607 L30.4832481,38.4619121 L30.4832481,38.4619121 C25.7084727,40.6442435 21.8284719,41.7354091 18.8432459,41.7354091 C15.9906641,41.7354091 11.8598115,40.4080981 6.45068802,37.753476 L6.45066382,37.7535253 C6.05405433,37.5588823 5.57474945,37.7226084 5.3801064,38.1192179 C5.37236537,38.1349912 5.36514613,38.1510153 5.35846041,38.167264 Z" id="shoe"></path>
                                    </g>
                                    <path d="M245.188035,105.917313 C196.36901,97.9742131 163.669365,92.5427519 147.0891,89.6229296 C99.8288083,81.3002854 86.0473052,55.9008445 94.1956657,0.48318826 L181.27195,0.48318826 C192.795096,3.80661505 240.943274,24.3609316 325.716482,62.1461379 C340.968854,69.7079791 338.128361,92.0040994 335.340499,99.3496848 C335.226799,99.6492658 309.514222,143.652565 258.202767,231.359581 L186.970696,186.039402 L245.32181,111.257676 C246.862807,108.157859 246.818215,106.377737 245.188035,105.917313 Z" id="Leg-and-Butt" fill="#5C63AB"></path>
                                </g>
                                <g id="Body/Long-Sleeve-1" transform="translate(62.160883, 96.855787)">
                                    <path d="M75.4774,25.045462 C115.751191,67.8843 164.878623,95.8320094 231.884476,120.614763 L216.994452,150.346873 C147.854366,143.853973 110.891323,138.663134 81.9254353,95.7549747 C74.6555848,84.9858967 61.6617469,47.9280901 53.8766376,28.6842108 L75.4774,25.045462 Z" id="Coat-Back" fill="#2026A2" transform="translate(142.880557, 87.696168) rotate(15.000000) translate(-142.880557, -87.696168) "></path>
                                    <path d="M16.2339807,182.328159 L139.526208,182.328159 C111.598454,97.2502912 97.331897,38.8581317 96.7265369,7.15168047 C96.6956751,5.53525495 93.7069388,2.68688487 92.3846565,3.05990429 C82.7149483,5.78775508 72.3675973,4.76778698 61.3426037,0 C32.1138353,46.9549498 22.0060204,104.766 16.2339807,182.328159 Z" id="Shirt" fill="#F2F2F2"></path>
                                    <path d="M77.8463535,-1.8189894e-12 C81.4109873,9.89214878 84.7765354,19.7810188 87.9084975,29.5886972 L88.1178679,29.2009124 L88.1178679,29.2009124 C116.527906,49.7353293 159.61962,90.126669 227.362654,112.373501 L213.468844,142.567902 C176.232386,140.454844 140.472819,135.890437 110.648612,125.640869 C118.018924,181.680834 109.279213,221.682199 73.8216584,221.682199 L73.8216584,221.682199 L2.5760619,221.682199 C-8.73938343,151.594584 20.9998212,54.4163432 48.5702262,5.40042299 C49.6230569,3.52865263 51.8646392,-1.8189894e-12 57.1444851,-1.8189894e-12 L57.1444851,-1.8189894e-12 Z" id="Coat-Front" fill="#1F28CF"></path>
                                </g>
                                <g id="Body/Long-Sleeve-1-Copy" transform="translate(62.160883, 96.855787)">
                                    <path d="M75.4774,25.045462 C115.751191,67.8843 164.878623,95.8320094 231.884476,120.614763 L216.994452,150.346873 C147.854366,143.853973 110.891323,138.663134 81.9254353,95.7549747 C74.6555848,84.9858967 61.6617469,47.9280901 53.8766376,28.6842108 L75.4774,25.045462 Z" id="Coat-Back" fill="#2026A2" transform="translate(142.880557, 87.696168) rotate(15.000000) translate(-142.880557, -87.696168) "></path>
                                    <path d="M16.2339807,182.328159 L139.526208,182.328159 C111.598454,97.2502912 97.331897,38.8581317 96.7265369,7.15168047 C96.6956751,5.53525495 93.7069388,2.68688487 92.3846565,3.05990429 C82.7149483,5.78775508 72.3675973,4.76778698 61.3426037,0 C32.1138353,46.9549498 22.0060204,104.766 16.2339807,182.328159 Z" id="Shirt" fill="#F2F2F2"></path>
                                    <path d="M77.8463535,-1.8189894e-12 C81.4112294,9.89282078 84.7769926,19.7823623 87.9091358,29.590696 L88.1178738,29.2009044 L88.1178738,29.2009044 C116.527912,49.7353213 159.619629,90.1266569 227.362654,112.373501 L213.468857,142.567884 C167.343096,139.95037 133.784941,126.847328 107.550295,106.066647 C119.652803,172.1308 113.285499,221.682199 73.8216584,221.682199 L73.8216584,221.682199 L2.5760619,221.682199 C-8.73938343,151.594584 20.9998212,54.4163432 48.5702262,5.40042299 C49.6230569,3.52865263 51.8646392,-1.8189894e-12 57.1444851,-1.8189894e-12 L57.1444851,-1.8189894e-12 Z" id="Coat-Front" fill="#2930AA"></path>
                                </g>
                            </g>
                            <path d="M387.943914,376.722415 C399.259359,446.81003 426.185977,376.722415 459.18951,376.722415 C498.647009,376.722415 505.018608,327.186938 492.92668,261.138048 C492.895631,260.968454 492.895631,260.914135 492.92668,260.97509 L459.18951,245.598667 L446.182767,240.349215 C443.724465,239.357058 440.927316,240.545602 439.935158,243.003904 C439.445576,244.216958 439.472287,245.57728 440.009113,246.770179 C450.788496,270.723418 454.164475,282.700037 450.137052,282.700037 C447.223468,282.700037 405.630923,277.339522 430.116176,311.684927 C454.601428,346.030332 381.40608,336.227219 387.943914,376.722415 Z" id="Clothes-Jacket-Copy" fill="#1E226F" transform="translate(442.980584, 321.845857) scale(-1, 1) translate(-442.980584, -321.845857) "></path>
                            <rect id="Rectangle" fill="#FFFFFF" x="180.799369" y="298.37259" width="82.407571" height="13.836541"></rect>
                            <path d="M203.939129,298.37259 L263.20694,298.37259 L263.20694,312.209131 L180.799369,312.209131 C190.622419,309.835109 195.623819,307.245818 195.803567,304.441259 C195.983316,301.6367 198.695169,299.61381 203.939129,298.37259 Z" id="Rectangle-Copy-2" fill="#F2F2F2"></path>
                            <polygon id="Rectangle" fill="#FFFFFF" points="0.355205047 309.016083 300.50347 309.016083 300.50347 336.784353 0.355205047 337.398731"></polygon>
                            <rect id="Rectangle" fill="#FFFFFF" x="0" y="336.689165" width="236.211356" height="235.930764"></rect>
                            <polygon id="Rectangle-Copy" fill="#8C8D9F" opacity="0.87125651" points="0 336.689165 236.211356 336.689165 236.211356 380.320071 92.8930077 450.751933 92.8930077 572.619928 0 572.619928"></polygon>
                            <g id="pot" stroke-width="1" fill="none" transform="translate(229.766234, 268.693766)">
                                <ellipse id="Shadow" fill="#F4F4F4" cx="35.8046688" cy="55.2574683" rx="31.3290852" ry="4.09774484"></ellipse>
                                <mask id="mask-7" fill="white">
                                    <use xlink:href="#path-6"></use>
                                </mask>
                                <use id="Combined-Shape" fill="#8D869A" xlink:href="#path-6"></use>
                                <mask id="mask-9" fill="white">
                                    <use xlink:href="#path-8"></use>
                                </mask>
                                <use id="Combined-Shape-Copy" fill="#7B7587" xlink:href="#path-8"></use>
                                <ellipse id="Oval" fill="#223851" cx="30.334511" cy="2.73182989" rx="30.334511" ry="2.73182989"></ellipse>
                            </g>
                            <g id="plant" stroke-width="1" fill="none" transform="translate(282.024220, 278.831021) rotate(-2.000000) translate(-282.024220, -278.831021) translate(206.024220, 217.831021)">
                                <path d="M56.5123317,55.1332942 C61.3453207,53.5091756 59.6755766,50.8560089 67.2015353,48.6762417 C74.727494,46.4964746 76.3678737,45.5949459 83.5099963,47.1816992 C86.7882354,47.9100201 88.1574578,48.6719566 88.8406355,49.1129149 C89.6458601,49.6326486 89.6784627,50.0191869 93.3862907,53.9299592 C100.239956,61.1587525 98.143934,64.2617939 101.957084,71.8440329 C105.770235,79.426272 102.534122,83.9767454 103.867115,90.9928553 C105.200108,98.0089653 111.691379,97.2792422 112.629914,102.042425 C113.568449,106.805608 112.949714,108.127726 117.244361,111.092277 C121.539007,114.056828 125.809263,113.54972 129.30015,113.54972 C132.791036,113.54972 135.325558,111.603839 136.03227,111.092277 C136.738983,110.580715 137.670851,109.273196 135.208079,109.273196 C132.745306,109.273196 134.03807,111.474222 129.30015,111.092277 C124.56223,110.710332 123.239754,111.083895 119.846183,108.034804 C116.452612,104.985713 117.232253,105.025974 116.21931,99.3392689 C115.206368,93.6525641 108.145554,95.7941827 106.419432,87.7225205 C104.69331,79.6508584 107.878866,80.2553733 103.867115,71.8440329 C99.8553639,63.4326925 103.352822,61.3025653 97.7169085,55.1332942 C92.080995,48.9640231 93.4251353,47.7772639 86.2182981,45.4401469 C79.0114609,43.1030299 77.6445246,43.6152774 69.8381896,45.4401469 C62.0318547,47.2650164 56.426951,51.9114575 55.3771031,52.6498244 C54.5467279,53.2338341 51.9819728,55.278488 53.5251545,55.3816424 C53.9330261,55.4089067 55.5019857,55.4728195 56.5123317,55.1332942 Z" id="Path-2" fill="#3EB491"></path>
                                <path d="M55.7507662,10.9424564 L55.7507662,15.3626953 C55.3523233,26.3540001 55.6872991,32.7780734 56.7556935,34.6349152 C57.4937927,35.9177123 66.8851104,24.4583618 66.8851104,26.0189849 C66.8851104,26.7821139 56.9321813,37.2000795 56.7556935,38.1893508 C56.1103025,41.8069773 55.7753267,47.4549584 55.7507662,55.1332942 L53.0362951,55.1332942 L53.0362951,27.3203887 C39.2278712,19.3783408 32.3236593,15.1520621 32.3236593,14.6415524 C32.3236593,14.2820269 42.7558845,21.1153252 49.6043849,23.9489378 C51.5217555,24.7422626 52.6657256,24.3484049 53.0362951,22.7673646 L55.7507662,10.9424564 Z" id="Rectangle" fill="#19A184"></path>
                                <path d="M92.080069,36.5293262 C94.3213502,36.5285536 96.1382437,36.6078567 96.1401835,30.1513074 C96.1414755,25.8469411 94.7904444,20.1791699 92.0870903,13.1479937 C89.3795128,20.1807963 88.0250773,25.8493808 88.0237836,30.1537471 C88.0218463,36.6102964 89.8387877,36.529901 92.080069,36.5293262 Z" id="Oval-6" fill="#43C59E" transform="translate(92.081984, 24.838660) rotate(-286.000000) translate(-92.081984, -24.838660) "></path>
                                <path d="M95.8106923,113.020563 C98.0519736,113.019791 99.8688671,113.099094 99.8708069,106.642544 C99.8720989,102.338178 98.5210678,96.6704069 95.8177137,89.6392307 C93.1101362,96.6720334 91.7557006,102.340618 91.754407,106.644984 C91.7524697,113.101533 93.5694111,113.021138 95.8106923,113.020563 Z" id="Oval-6-Copy-26" fill="#43C59E" transform="translate(95.812607, 101.329897) scale(-1, 1) rotate(-286.000000) translate(-95.812607, -101.329897) "></path>
                                <path d="M64.2294047,21.12957 C66.4710568,21.128226 68.2882322,21.2070897 68.2916877,14.7516073 C68.2939875,10.4479524 66.9440607,4.78143526 64.2419075,-2.247944 C61.5322337,4.78433144 60.1762443,10.4522966 60.1739394,14.7559515 C60.1704917,21.2114339 61.9877525,21.1306253 64.2294047,21.12957 Z" id="Oval-6" fill="#43C59E" transform="translate(64.232814, 9.440813) rotate(60.000000) translate(-64.232814, -9.440813) "></path>
                                <path d="M123.803622,104.621642 C126.044904,104.620966 127.861797,104.700269 127.863736,98.2437196 C127.865029,93.9393533 127.875926,88.3401097 127.896427,81.4459888 C123.526804,87.093019 121.341341,92.0687172 121.34004,96.3730835 C121.338114,102.829633 121.562341,104.622313 123.803622,104.621642 Z" id="Oval-6-Copy-2" fill="#19A184" transform="translate(124.618234, 93.033816) rotate(-286.000000) translate(-124.618234, -93.033816) "></path>
                                <path d="M127.533275,70.8462909 C129.774557,70.8456144 131.59145,70.9249175 131.593389,64.4683681 C131.594682,60.1640019 131.605579,54.5647583 131.62608,47.6706374 C127.256457,53.3176676 125.070994,58.2933658 125.069693,62.5977321 C125.067767,69.0542815 125.291994,70.8469618 127.533275,70.8462909 Z" id="Oval-6-Copy-2" fill="#19A184" transform="translate(128.347887, 59.258464) rotate(-286.000000) translate(-128.347887, -59.258464) "></path>
                                <path d="M124.204981,90.1394222 C126.446704,90.1403703 128.264036,90.2555067 128.25951,81.0178405 C128.256482,74.8593963 122.221374,68.3786133 110.154188,61.5754913 C116.809376,68.3759552 120.138481,74.8554092 120.141504,81.0138534 C120.146038,90.2515196 121.963258,90.1381683 124.204981,90.1394222 Z" id="Oval-6-Copy-6" fill="#19A184" transform="translate(119.206849, 75.857457) scale(-1, 1) rotate(-60.000000) translate(-119.206849, -75.857457) "></path>
                                <path d="M127.533275,33.8424133 C129.774557,33.8417367 131.59145,33.9210399 131.593389,27.4644905 C131.594682,23.1601242 131.605579,17.5608806 131.62608,10.6667597 C127.256457,16.3137899 125.070994,21.2894882 125.069693,25.5938544 C125.067767,32.0504038 125.291994,33.8430841 127.533275,33.8424133 Z" id="Oval-6-Copy-18" fill="#19A184" transform="translate(128.347887, 22.254586) rotate(-286.000000) translate(-128.347887, -22.254586) "></path>
                                <path d="M75.0694899,34.5874578 C77.3107711,34.5867812 79.1276646,34.6660844 79.1296035,28.209535 C79.1308961,23.9051687 79.1417933,18.3059252 79.162295,11.4118043 C74.7926711,17.0588345 72.6072087,22.0345327 72.6059079,26.3388989 C72.6039814,32.7954483 72.8282086,34.5881286 75.0694899,34.5874578 Z" id="Oval-6-Copy-32" fill="#19A184" transform="translate(75.884101, 22.999631) rotate(-286.000000) translate(-75.884101, -22.999631) "></path>
                                <path d="M108.434584,41.0379007 C110.1339,41.037387 111.511452,41.0909394 111.512755,36.7270848 C111.513623,33.8178484 111.52174,30.0334297 111.537106,25.3738287 C108.224249,29.1906584 106.567384,32.5536915 106.566511,35.4629279 C106.565215,39.8267825 106.735269,41.038414 108.434584,41.0379007 Z" id="Oval-6-Copy-28" fill="#19A184" transform="translate(109.051808, 33.205865) scale(-1, 1) rotate(-286.000000) translate(-109.051808, -33.205865) "></path>
                                <path d="M94.1608933,103.246922 C96.4021745,103.24615 98.219068,103.325453 98.2210078,96.8689034 C98.2222998,92.5645371 96.8712688,86.8967659 94.1679147,79.8655897 C91.4603372,86.8983924 90.1059016,92.5669768 90.104608,96.8713431 C90.1026706,103.327892 91.919612,103.247497 94.1608933,103.246922 Z" id="Oval-6-Copy-16" fill="#43C59E" transform="translate(94.162808, 91.556256) scale(-1, 1) rotate(-286.000000) translate(-94.162808, -91.556256) "></path>
                                <path d="M97.2547956,104.966603 C99.4960768,104.965926 101.31297,105.045229 101.314909,98.5886801 C101.316202,94.2843138 101.327099,88.6850702 101.347601,81.7909493 C96.9779768,87.4379795 94.7925145,92.4136778 94.7912136,96.718044 C94.7892871,103.174593 95.0135143,104.967274 97.2547956,104.966603 Z" id="Oval-6-Copy-15" fill="#19A184" transform="translate(98.069407, 93.378776) scale(-1, 1) rotate(-286.000000) translate(-98.069407, -93.378776) "></path>
                                <path d="M58.8595748,33.5396137 C60.1962085,33.5388288 61.2797393,33.5858093 61.2817563,29.7411035 C61.2830987,27.1779663 60.4781376,23.8031377 58.8668729,19.6166177 C57.2512184,23.8048282 56.4427184,27.180502 56.4413729,29.7436393 C56.4393604,33.5883451 57.5229411,33.5402293 58.8595748,33.5396137 Z" id="Oval-6-Copy" fill="#43C59E" transform="translate(58.861565, 26.578116) rotate(30.000000) translate(-58.861565, -26.578116) "></path>
                                <path d="M90.96877,51.7984017 C92.2715602,51.79894 93.3277229,51.8864887 93.3242861,44.8491997 C93.3219836,40.1576736 89.8140776,35.2211284 82.800568,30.0395638 C86.668864,35.2195877 88.6041604,40.1553627 88.6064572,44.8468887 C88.6099024,51.8841777 89.6659799,51.7976637 90.96877,51.7984017 Z" id="Oval-6-Copy-29" fill="#34A885" transform="translate(88.062427, 40.918983) scale(-1, 1) rotate(-60.000000) translate(-88.062427, -40.918983) "></path>
                                <path d="M83.4793148,48.6949494 C84.8148052,48.6951612 85.8974433,48.7429601 85.8966979,44.8949638 C85.8962005,42.3296329 85.0895058,38.9513365 83.4766141,34.7600747 C81.8653468,38.950711 81.0599617,42.3286946 81.0604587,44.8940255 C81.0612047,48.7420218 82.1438244,48.694643 83.4793148,48.6949494 Z" id="Oval-6-Copy-19" fill="#43C59E" transform="translate(83.478578, 41.727512) scale(-1, 1) rotate(-80.000000) translate(-83.478578, -41.727512) "></path>
                                <path d="M30.4601738,74.416058 C34.9426293,74.4148643 32.903712,69.4642547 32.9080688,53.0879982 C32.9109732,42.1704938 38.5390002,34.8971343 49.7921498,31.2679198 C30.3662119,33.6036837 20.6517898,40.2303179 20.6488836,51.1478223 C20.6445295,67.5240789 25.9777183,74.4172517 30.4601738,74.416058 Z" id="Oval-6-Copy-23" fill="#43C59E" transform="translate(35.220517, 52.841989) scale(-1, 1) rotate(-284.000000) translate(-35.220517, -52.841989) "></path>
                                <path d="M14.96804,72.8848528 C16.9862052,75.2043531 17.1222025,66.8978309 17.1265592,50.5215744 C17.1294637,39.60407 21.7861943,33.2685305 31.0967509,31.514956 C20.6557916,35.9438479 15.4338597,43.6170461 15.4309552,54.5345505 C15.4265985,70.9108071 12.9498748,70.5653524 14.96804,72.8848528 Z" id="Oval-6" fill="#19A184" transform="translate(22.636560, 52.391467) scale(-1, 1) rotate(-284.000000) translate(-22.636560, -52.391467) "></path>
                                <path d="M108.164939,92.704007 C108.279339,95.9252893 113.834155,89.0466779 124.571788,75.3187094 C131.73021,66.1667305 139.655001,63.8000605 148.34616,68.2186994 C136.985767,65.3282089 127.726359,68.4589531 120.567937,77.6109321 C109.830304,91.3389005 108.05054,89.4827247 108.164939,92.704007 Z" id="Oval-7" fill="#19A184"></path>
                                <path d="M105.40822,64.0020447 C109.126956,65.9926774 109.368782,58.873654 109.359839,44.838194 C109.353878,35.4812206 111.683773,27.0726016 116.349524,19.6123369 C109.604974,29.3640147 106.235679,38.9183402 106.241641,48.2753136 C106.250583,62.3107736 101.689483,62.011412 105.40822,64.0020447 Z" id="Oval-6" fill="#19A184" transform="translate(110.149024, 41.971772) scale(1, -1) rotate(140.000000) translate(-110.149024, -41.971772) "></path>
                                <path d="M36.6823504,59.4933398 C40.3828062,59.4913038 38.7008365,55.2579801 38.708542,41.2529252 C38.713679,31.9162219 43.3616768,25.6947359 52.6525355,22.588467 C36.6150209,24.5904205 28.5936917,30.2597489 28.588548,39.5964521 C28.5808526,53.601507 32.9818946,59.4953747 36.6823504,59.4933398 Z" id="Oval-6" fill="#3BBD9E" transform="translate(40.620542, 41.040903) scale(-1, 1) rotate(-322.000000) translate(-40.620542, -41.040903) "></path>
                                <path d="M25.4016044,62.9802452 C28.6946364,64.2900756 28.9152494,59.5936406 28.9198548,50.334853 C28.9229251,44.162328 36.5195076,40.576738 51.7096024,39.5780829 C34.6756415,42.0901818 26.157126,46.4324938 26.1540557,52.6050188 C26.1494502,61.8638064 22.1085723,61.6704148 25.4016044,62.9802452 Z" id="Oval-6" fill="#19A184" transform="translate(37.909652, 51.387236) scale(-1, 1) rotate(-322.000000) translate(-37.909652, -51.387236) "></path>
                                <path d="M64.992674,48.706262 C66.1554511,48.7056795 66.4253076,48.027822 66.4215533,46.2045517 C66.4181961,44.5741547 66.1960538,42.0278608 66.197954,38.2309356 C66.2006375,32.868922 67.1848196,27.5721618 69.1505002,22.340655 C63.1690938,26.9378396 60.1770472,31.9174387 60.1743606,37.2794523 C60.17034,45.3224726 62.7901234,48.7073647 64.992674,48.706262 Z" id="Oval-6" fill="#43C59E" transform="translate(64.662430, 35.523459) rotate(-301.000000) translate(-64.662430, -35.523459) "></path>
                                <path d="M70.0042921,58.9580121 C70.9956898,60.0969768 71.0634706,56.0173033 71.0674958,47.974283 C71.0701793,42.6122694 71.6957292,37.7926001 72.9441455,33.515275 C71.1399761,39.1066833 70.2365496,44.5833943 70.2338661,49.9454078 C70.2298409,57.9884282 69.0128943,57.8190473 70.0042921,58.9580121 Z" id="Oval-6" fill="#19A184" transform="translate(71.279822, 46.330693) rotate(-301.000000) translate(-71.279822, -46.330693) "></path>
                                <path d="M32.6598141,23.2892612 C39.9503125,32.9531293 39.9769059,39.3120385 37.4203685,41.236345 C34.8638305,43.1606508 33.1898854,39.4505119 25.8993802,29.7866489 C21.9785027,24.5893654 20.1087459,25.0512039 18.5031538,33.075657 C18.2285787,34.4479325 17.3359914,38.1786739 15.8253919,44.2678812 C16.6101288,27.814968 18.3429363,19.3943818 21.0238143,19.0061227 C26.0750913,18.2745696 29.9537556,19.7022842 32.6598141,23.2892612 Z M89.3380571,25.2625853 C85.028692,26.395469 80.5752471,28.3415813 75.9777223,31.1009222 C69.081435,35.2399336 65.5495627,37.2830213 66.0152384,35.8466174 C66.4809141,34.4102135 66.9625002,35.5405778 73.8587874,31.4015664 C78.4563122,28.6422255 83.6160688,26.5958984 89.3380571,25.2625853 Z" id="Oval-6-Copy-30" fill="#19A184"></path>
                                <path d="M32.6598141,23.2892612 C39.9503125,32.9531293 39.9769059,39.3120385 37.4203685,41.236345 C34.8638305,43.1606508 33.1898854,39.4505119 25.8993802,29.7866489 C21.9785027,24.5893654 20.1087459,25.0512039 18.5031538,33.075657 C18.2285787,34.4479325 17.3359914,38.1786739 15.8253919,44.2678812 C16.6101288,27.814968 18.3429363,19.3943818 21.0238143,19.0061227 C26.0750913,18.2745696 29.9537556,19.7022842 32.6598141,23.2892612 Z M89.3380571,25.2625853 C85.028692,26.395469 80.5752471,28.3415813 75.9777223,31.1009222 C69.081435,35.2399336 65.5495627,37.2830213 66.0152384,35.8466174 C66.4809141,34.4102135 66.9625002,35.5405778 73.8587874,31.4015664 C78.4563122,28.6422255 83.6160688,26.5958984 89.3380571,25.2625853 Z" id="Oval-6-Copy-31" fill="#19A184"></path>
                                <path d="M122.916896,48.2265386 C125.043051,48.2258065 126.76662,48.293211 126.768261,42.800837 C126.769354,39.1392543 125.487545,34.3179096 122.922835,28.336803 C120.354553,34.3194602 119.069864,39.1415802 119.06877,42.8031629 C119.067131,48.2955369 120.790741,48.227091 122.916896,48.2265386 Z" id="Oval-6-Copy-27" fill="#43C59E" transform="translate(122.918515, 38.281671) rotate(-286.000000) translate(-122.918515, -38.281671) "></path>
                                <path d="M112.77098,78.8258658 C113.762378,79.9648306 113.830158,75.8851571 113.834184,67.8421367 C113.836867,62.4801232 114.462417,57.6604538 115.710833,53.3831288 C113.906664,58.9745371 113.003237,64.451248 113.000554,69.8132616 C112.996529,77.856282 111.779582,77.6869011 112.77098,78.8258658 Z" id="Oval-6-Copy-24" fill="#19A184" transform="translate(114.046510, 66.198546) rotate(-301.000000) translate(-114.046510, -66.198546) "></path>
                                <path d="M108.046153,118.809922 C109.03755,119.948886 109.105331,115.869213 109.109356,107.826192 C109.11204,102.464179 109.73759,97.6445096 110.986006,93.3671845 C109.181837,98.9585928 108.27841,104.435304 108.275727,109.797317 C108.271701,117.840338 107.054755,117.670957 108.046153,118.809922 Z" id="Oval-6-Copy-25" fill="#19A184" transform="translate(109.321682, 106.182602) scale(-1, 1) rotate(-301.000000) translate(-109.321682, -106.182602) "></path>
                                <path d="M35.3417002,66.3495206 C37.7086561,66.3483349 38.2579776,64.968484 38.2503352,61.2570244 C38.2435014,57.9381787 37.791307,52.7549278 37.7951751,45.0258846 C37.8006377,34.1109382 39.8040445,23.3288221 43.8053956,12.6795361 C31.6296095,22.037592 25.538982,32.1740931 25.5335132,43.0890395 C25.5253288,59.461459 30.8581751,66.3517651 35.3417002,66.3495206 Z" id="Oval-6" fill="#43C59E" transform="translate(34.669454, 39.514528) scale(-1, 1) rotate(-301.000000) translate(-34.669454, -39.514528) "></path>
                                <path d="M29.7451477,69.2220567 C31.7632428,71.54054 31.9012178,63.2359327 31.9094116,46.8635132 C31.9148741,35.9485669 33.1882471,26.1376197 35.7295307,17.4306716 C32.0569527,28.8125753 30.2179325,39.9610003 30.21247,50.8759466 C30.2042762,67.2483661 27.7270527,66.9035735 29.7451477,69.2220567 Z" id="Oval-6" fill="#19A184" transform="translate(32.341624, 43.517811) scale(-1, 1) rotate(-301.000000) translate(-32.341624, -43.517811) "></path>
                                <path d="M138.027462,124.34647 C140.16872,124.34647 139.567984,121.685238 139.568782,113.57292 C139.569314,108.164709 142.132693,104.631665 147.258918,102.973787 C137.979379,104.129208 133.339344,107.411024 133.338811,112.819235 C133.338013,120.931553 135.886204,124.34647 138.027462,124.34647 Z" id="Oval-6" fill="#43C59E" transform="translate(140.298865, 113.660129) rotate(-275.000000) translate(-140.298865, -113.660129) "></path>
                                <path d="M137.829691,124.97536 C138.831948,123.979991 138.146486,121.130051 138.618127,113.897181 C138.932554,109.075267 141.305608,105.815661 145.737288,104.118362 C138.540528,105.929865 134.941882,109.539723 134.94135,114.947934 C134.940878,119.741937 135.737561,122.831513 135.753931,124.496137 C135.765262,125.648357 136.816885,125.981203 137.829691,124.97536 Z" id="Oval-6" fill-opacity="0.5" fill="#19A184" transform="translate(140.339319, 114.845807) rotate(-275.000000) translate(-140.339319, -114.845807) "></path>
                                <path d="M61.9545978,61.0790808 C65.1544159,61.0773368 64.2584706,57.1068828 64.265069,45.0014431 C64.2686177,38.491065 66.0398133,37.7346579 72.1513326,43.1770016 C73.196474,44.1077061 76.1545421,46.5500362 81.0255369,50.5039919 C70.4972078,37.8363777 64.045691,32.1542281 61.6709865,33.4575432 C57.1965976,35.9132334 54.9581786,39.3876954 54.9557209,43.8809292 C54.949131,55.986369 58.7547797,61.080824 61.9545978,61.0790808 Z" id="Oval-6-Copy-20" fill="#43C59E" transform="translate(67.990629, 47.177125) rotate(-323.000000) translate(-67.990629, -47.177125) "></path>
                                <path d="M116.949527,120.351352 C119.191167,120.352333 121.0084,120.402952 121.006421,116.382328 C121.0051,113.701912 119.650412,110.171557 116.942357,105.791262 C114.238615,110.168891 112.887403,113.697913 112.888723,116.378329 C112.890704,120.398952 114.707887,120.350124 116.949527,120.351352 Z" id="Oval-6" fill="#34A885" transform="translate(116.947572, 113.071307) scale(1, -1) rotate(-60.000000) translate(-116.947572, -113.071307) "></path>
                                <path d="M69.2472881,70.5472734 C71.3701164,70.5472734 73.0910088,70.6576224 73.0910088,61.7296963 C73.0910088,55.7777456 67.3790008,49.5171272 55.9549849,42.9478413 C62.25404,49.5171272 65.4035675,55.7777456 65.4035675,61.7296963 C65.4035675,70.6576224 67.1244598,70.5472734 69.2472881,70.5472734 Z" id="Oval-6-Copy-7" fill="#34A885" transform="translate(64.522997, 56.747557) scale(1, -1) rotate(90.000000) translate(-64.522997, -56.747557) "></path>
                                <path d="M47.1018727,63.7190331 C47.9914493,63.7192948 48.7126266,63.8066098 48.7099651,56.7685253 C48.7081809,52.076469 46.3126754,47.1401747 41.5234486,41.9596422 C44.1650475,47.1393596 45.4867366,52.0752464 45.4885158,56.7673027 C45.4911848,63.8053871 46.2122961,63.7186196 47.1018727,63.7190331 Z" id="Oval-6-Copy-8" fill="#34A885" transform="translate(45.116707, 52.839338) rotate(-69.000000) translate(-45.116707, -52.839338) "></path>
                                <path d="M30.9400408,26.9634929 C31.8296146,26.9637546 32.5507896,27.0510696 32.5481281,20.0129851 C32.5463439,15.3209288 30.150846,10.3846345 25.3616345,5.20410202 C28.003225,10.3838194 29.3249099,15.3197062 29.3266891,20.0117625 C29.3293581,27.0498469 30.0504671,26.9630794 30.9400408,26.9634929 Z" id="Oval-6-Copy-9" fill="#34A885" transform="translate(28.954881, 16.083797) rotate(-69.000000) translate(-28.954881, -16.083797) "></path>
                                <path d="M12.0822155,56.974358 C12.6667845,56.974358 13.1406702,57.058833 13.1407547,50.2220511 C13.1408111,45.6641965 11.5679393,40.8700145 8.42213945,35.8395051 C10.156665,40.8700527 11.0238996,45.6642537 11.0238433,50.2221084 C11.0237588,57.0588903 11.4976466,56.974358 12.0822155,56.974358 Z" id="Oval-6-Copy-12" fill="#34A885" transform="translate(10.781447, 46.406932) rotate(-90.000000) translate(-10.781447, -46.406932) "></path>
                                <path d="M48.5964367,21.7425654 C49.4864954,21.7429809 50.2080798,21.8303838 50.2041076,14.7961324 C50.2014376,10.1066314 47.8037065,5.17257566 43.0109145,-0.00603495682 C45.6549148,5.17135747 46.9782446,10.1048042 46.9809037,14.7943051 C46.9848923,21.8285565 47.7063781,21.7419717 48.5964367,21.7425654 Z" id="Oval-6-Copy-11" fill="#34A885" transform="translate(46.607511, 10.868265) rotate(-40.000000) translate(-46.607511, -10.868265) "></path>
                                <path d="M99.0683689,87.3120988 C99.9579427,87.3123604 100.679118,87.3996754 100.676456,80.361591 C100.674672,75.6695347 98.2791741,70.7332403 93.4899626,65.5527079 C96.1315531,70.7324252 97.4532379,75.668312 97.4550172,80.3603683 C97.4576861,87.3984528 98.1787951,87.3116852 99.0683689,87.3120988 Z" id="Oval-6-Copy-21" fill="#34A885" transform="translate(97.083209, 76.432403) rotate(-69.000000) translate(-97.083209, -76.432403) "></path>
                                <path d="M140.096113,80.1100018 C140.985687,80.1102634 141.706862,80.1975784 141.7042,73.159494 C141.702416,68.4674377 139.306918,63.5311433 134.517707,58.3506109 C137.159297,63.5303282 138.480982,68.466215 138.482761,73.1582713 C138.48543,80.1963558 139.206539,80.1095882 140.096113,80.1100018 Z" id="Oval-6-Copy-10" fill="#34A885" transform="translate(138.110953, 69.230306) scale(-1, 1) rotate(-69.000000) translate(-138.110953, -69.230306) "></path>
                                <path d="M46.6442685,32.7033443 C47.9807735,32.7039429 49.0642869,32.8194414 49.0592931,23.5275553 C49.0559407,17.3329646 43.9310605,10.8770359 33.6846524,4.15976929 C40.7044519,10.8752964 44.216022,17.3303553 44.2193628,23.524946 C44.224374,32.8168321 45.3077634,32.7025018 46.6442685,32.7033443 Z" id="Oval-6-Copy-13" fill="#43C59E" transform="translate(41.371973, 18.431557) rotate(-396.000000) translate(-41.371973, -18.431557) "></path>
                            </g>
                            <rect id="Rectangle" fill="#0E0D0D" x="15" y="309" width="56.4776025" height="9.93392689" rx="2"></rect>
                            <path d="M85.3661021,178.125676 C129.684463,178.116657 168.73567,172.421759 202.519723,161.040983 C203.566505,160.688369 204.129227,159.553928 203.7766,158.50715 C203.502475,157.693404 202.739511,157.145449 201.880834,157.145623 L-40.1570055,157.194847 C-41.2425257,157.229547 -42.1223404,158.10972 -42.1221197,159.195247 C-42.1219413,160.072287 -41.5407198,160.843083 -40.6975499,161.084462 C-0.981249201,172.45428 41.0399681,178.134685 85.3661021,178.125676 Z" id="Oval-Copy" fill-opacity="0.4" fill="#BBB8B8" transform="translate(79.906709, 167.634487) scale(-1, -1) rotate(80.000000) translate(-79.906709, -167.634487) "></path>
                            <path d="M68.7000068,179.544101 C113.018367,179.535082 152.069574,173.840184 185.853626,162.459408 C186.900408,162.106794 187.463129,160.972353 187.110503,159.925575 C186.836378,159.111829 186.073414,158.563874 185.214737,158.564048 L-56.8230984,158.613272 C-57.9086186,158.647972 -58.7884333,159.528145 -58.7882126,160.613672 C-58.7880342,161.490712 -58.2068127,162.261508 -57.3636428,162.502887 C-17.6473428,173.872705 24.3738737,179.55311 68.7000068,179.544101 Z" id="Oval" fill="#000000" transform="translate(63.240614, 169.052913) rotate(80.000000) translate(-63.240614, -169.052913) "></path>
                            <polygon id="Rectangle" fill="#000000" points="56.5767418 179.608785 63.2683786 194.678893 44.0454259 218.210494 44.0454259 310.789998 30.192429 310.789998 30.192429 216.776632"></polygon>
                            <path d="M324.149441,431.15922 C303.597653,387.496767 299.083332,367.327254 310.606479,370.650681 C322.129626,373.974108 339.874178,381.240283 363.840135,392.449207 C379.092507,400.011048 376.252014,422.307168 373.464151,429.652754 C373.350452,429.952335 347.637875,473.955634 296.32642,561.66265 L225.094348,516.342471 C249.836019,497.91146 265.687109,483.906225 272.647619,474.326767 C283.088384,459.95758 316.00108,486.576876 324.149441,431.15922 Z" id="Leg-and-Butt" fill="#5C63AB" transform="translate(300.384224, 465.980360) scale(-1, 1) translate(-300.384224, -465.980360) "></path>
                        </g>
                    </g>
                </g>
                <circle id="Oval" fill="url(#linearGradient-10)" cx="124" cy="80" r="80"></circle>
            </g>
        </g>
    </g>
</svg>