<?xml version="1.0" encoding="UTF-8"?>
<svg width="1093px" height="1520px" viewBox="0 0 1093 1520" version="1.1" xmlns="http://www.w3.org/2000/svg" xmlns:xlink="http://www.w3.org/1999/xlink">
    <!-- Generator: Sketch 57.1 (83088) - https://sketch.com -->
    <title>Artboard</title>
    <desc>Created with Sketch.</desc>
    <defs>
        <linearGradient x1="50%" y1="0%" x2="50%" y2="100%" id="linearGradient-1">
            <stop stop-color="#6C0FEB" offset="0%"></stop>
            <stop stop-color="#D888CD" offset="100%"></stop>
        </linearGradient>
    </defs>
    <g id="Page-1" stroke="none" stroke-width="1" fill="none" fill-rule="evenodd">
        <g id="Artboard" transform="translate(-306.000000, -522.000000)">
            <polygon id="Path-33" fill="#DD8ECC" points="622.132671 1204.92442 622.132671 2041.31834 750.380397 2041.31834 750.380397 1204.92442"></polygon>
            <polygon id="Path-33-Copy" fill="#BA79AC" points="686.380397 1204.92442 686.380397 2041.31834 750.380397 2041.31834 750.380397 1204.92442"></polygon>
            <polygon id="Rectangle" fill="#BA80AE" points="622 1205 750 1205 750.380397 1204.92442 622 1380"></polygon>
            <polygon id="Rectangle-Copy" fill="#905E85" points="686.380397 1204.92442 750 1205 750.380397 1204.92442 686.190199 1292.46221"></polygon>
            <path d="M311.661035,1204.92442 L950.471331,1204.92442 L950.471331,761.11147 C843.054463,765.316522 703.471514,765.316522 531.722486,761.11147 C358.456065,756.869267 285.102248,904.806916 311.661035,1204.92442 Z" id="Path-34" fill="#6709EC"></path>
            <path d="M464.074338,1204.37778 L950.471331,1204.92442 L950.471331,761.11147 C963.91815,821.114021 884.767045,849.01277 713.018016,844.807719 C602.082329,842.091602 604.823871,974.788248 462.382079,1006 C367.420884,1026.80783 367.98497,1092.93376 464.074338,1204.37778 Z" id="Path-34-Copy" fill="#5B11C5"></path>
            <path d="M950,761 C1053.87019,761 1114.43418,812.735829 1131.69196,916.207488 C1132.5625,921.42692 1133,926.709393 1133,932.000924 L1133,1204.97722 L1133,1204.97722 L767,1204.97722 L767,932.083842 C766.999999,926.725285 767.444031,921.375943 768.327537,916.090723 C785.611398,812.696908 846.168885,761 950,761 Z" id="Rectangle" fill="#6709EC"></path>
            <path d="M923.019458,761.11147 C1011.28949,761.11147 1059.203,814.44481 1066.75998,921.111488 C1066.91994,923.369377 1067,925.632218 1067,927.895766 L1067,1204.92442 L1067,1204.92442 L767,1204.97722 L767,931.716529 C767,926.714738 767.386874,921.720439 768.157161,916.778317 C784.332143,813.000419 835.952909,761.11147 923.019458,761.11147 Z" id="Rectangle-Copy-2" fill="#490DA0"></path>
            <path d="M767,1204.97722 L767,1253.37735 C767,1276.91719 786.082811,1296 809.622652,1296 C833.162493,1296 852.245304,1276.91719 852.245304,1253.37735 L852.245304,1250.48861 L852.245304,1250.48861 L1353.17002,1250.48861 C1378.33443,1250.48861 1398.73421,1230.08883 1398.73421,1204.92442 L1398.73421,1204.92442 L1398.73421,1204.92442 L767,1204.97722 Z" id="Path-35" fill="#6709EC"></path>
            <path d="M767,1204.97722 L767,1236.89691 C767,1269.53865 793.461354,1296 826.103089,1296 L839.694788,1296 C864.830034,1296 885.206177,1275.62386 885.206177,1250.48861 L885.206177,1250.48861 L885.206177,1250.48861 L1161.2846,1248.93873 C1185.46754,1248.80297 1205,1229.16055 1205,1204.97722 L1205,1204.97722 L1205,1204.97722 L767,1204.97722 Z" id="Path-35-Copy" fill="#5B11C5"></path>
            <path d="M464.074338,941.017411 C464.074338,964.189172 482.858763,982.973597 506.030525,982.973597 L580.176484,982.973597 C603.348246,982.973597 622.132671,964.189172 622.132671,941.017411 L622.132671,899.89617 C622.132671,899.339549 622.137318,898.782938 622.146612,898.226395 L628.418735,522.651806 L628.418735,522.651806 L546.246537,522.651806 L546.246537,899.061224 L506.030525,899.061224 C482.858763,899.061224 464.074338,917.845649 464.074338,941.017411 Z" id="Path-36" fill="#DD8ECC"></path>
            <circle id="Oval" fill="#BA79AC" cx="510.5" cy="941.5" r="21.5"></circle>
            <circle id="Oval-Copy" fill="#BA79AC" cx="809.5" cy="1256.5" r="21.5"></circle>
            <path d="M622.132671,948.173562 L622.132671,899.89617 C622.132671,899.339549 622.137318,898.782938 622.146612,898.226395 L628.418735,522.651806 L628.418735,522.651806 L587.332636,522.651806 L587.332636,982.973597 C606.552164,982.973597 622.132671,967.393091 622.132671,948.173562 Z" id="Path-36-Copy" fill="#BA79AC"></path>
            <polygon id="Path-37" fill="url(#linearGradient-1)" points="546.246537 522.651806 378.517621 522.651806 443.573437 571.868924 378.517621 621.086042 546.246537 621.086042"></polygon>
            <g id="Group" transform="translate(936.000000, 833.000000)">
                <rect id="Rectangle" fill="#FFE5B2" x="0" y="0" width="463" height="300" rx="3"></rect>
                <path d="M4.62064976,24.6800377 C134.766813,108.226679 210.393263,150 231.5,150 C252.606084,150 328.228506,107.787605 458.367269,23.3628162 C459.757253,22.4610742 461.61506,22.8568906 462.516789,24.2468835 C462.832169,24.7330336 463,25.3001197 463,25.8796077 L463,297 C463,298.656854 461.656854,300 460,300 L3,300 C1.34314575,300 2.02906125e-16,298.656854 0,297 L0,27.2046317 C-1.33961832e-05,25.54777 1.34313835,24.2046183 3,24.2046183 C3.5745982,24.2046183 4.13710953,24.3696316 4.62064976,24.6800377 Z" id="Rectangle-Copy-3" fill="#F4CC81"></path>
            </g>
        </g>
    </g>
</svg>