<?xml version="1.0" encoding="UTF-8"?>
<svg width="1280px" height="960px" viewBox="0 0 1280 960" version="1.1" xmlns="http://www.w3.org/2000/svg" xmlns:xlink="http://www.w3.org/1999/xlink">
    <!-- Generator: Sketch 57.1 (83088) - https://sketch.com -->
    <title>Artboard</title>
    <desc>Created with Sketch.</desc>
    <defs>
        <linearGradient x1="50%" y1="0%" x2="50%" y2="100%" id="linearGradient-1">
            <stop stop-color="#D7AF70" offset="0%"></stop>
            <stop stop-color="#FFCAB1" offset="100%"></stop>
        </linearGradient>
    </defs>
    <g id="Artboard" stroke="none" stroke-width="1" fill="none" fill-rule="evenodd">
        <rect id="Rectangle" stroke="#979797" fill="url(#linearGradient-1)" x="0" y="0" width="1280" height="960"></rect>
        <path d="M737.376898,795.5 C787.616148,705.510759 821.71192,654.844092 839.664212,643.5 C866.59265,626.483862 886.862891,678.391606 934.401069,671 C981.939247,663.608394 980.594336,597.042293 1015.53286,616.154573 C1050.47138,635.266853 1055.74328,697.325099 1047.07789,732.637151 C1041.30097,756.17852 1016.11582,777.132802 971.522449,795.5 L737.376898,795.5 Z" id="Path-6" fill="#677A4E"></path>
        <path d="M1139.72871,795.5 C1176.22946,575.776943 1176.22946,422.381009 1139.72871,335.312197 C1084.97758,204.708979 965.707976,203.053151 929.883006,294.934555 C894.058036,386.815959 979.106085,422.330776 986.609254,436.80132 C994.112422,451.271863 981.812364,455.139767 968.958144,480 C956.103923,504.860233 956.103923,568.536844 1037.82977,612.720705 C1092.31366,642.176612 1096.6168,703.103044 1050.73917,795.5 L1139.72871,795.5 Z" id="Path-7" fill="#3B5400"></path>
        <path d="M1150.07724,795.5 C1172.77995,658.892281 1172.77995,563.521914 1150.07724,509.388897 C1116.02318,428.189373 1041.83999,427.1599 1019.55761,484.285034 C997.275224,541.410168 1050.17333,563.490682 1054.84015,572.487407 C1059.50696,581.484133 1051.85658,583.888912 1043.86152,599.345186 C1035.86647,614.80146 1035.86647,654.390917 1086.69823,681.861209 C1120.58608,700.174736 1123.26254,738.054333 1094.72761,795.5 L1150.07724,795.5 Z" id="Path-7-Copy" fill="#2A3C01"></path>
        <path d="M231.205147,762 C197.460634,716.428871 182.355457,675.834545 185.889616,640.217022 C191.190854,586.790738 251.866251,644.923846 251.866251,553.7758 C251.866251,462.627754 114.299727,457.730847 212.12139,394.864127 C309.943053,331.997408 212.12139,274.260481 231.205147,217.439411 C250.288904,160.618341 302.773011,112.836638 352.795312,118.449124 C402.817613,124.06161 444.288108,191.427525 447.877311,241.749958 C451.466514,292.072391 375.164017,306.994389 368.67094,341.033405 C362.177862,375.072422 404.950881,380.824623 392.72639,449.397293 C380.501899,517.969963 339.639117,504.511305 330.745226,553.7758 C321.851335,603.040295 374.080445,616.399669 368.67094,670.547375 C365.064603,706.645845 345.488641,737.130054 309.943053,762 L231.205147,762 Z" id="Path-13-Copy" fill="#4A5E0D" transform="translate(312.500000, 440.000000) rotate(-14.000000) translate(-312.500000, -440.000000) "></path>
        <path d="M283.039666,795.532337 C248.775637,749.286674 233.437907,708.091481 237.026476,671.946756 C242.40933,617.729669 304.018859,676.723249 304.018859,584.226051 C304.018859,491.728853 164.334422,486.759463 263.662104,422.962205 C362.989785,359.164947 263.662104,300.573412 283.039666,242.91129 C302.417227,185.249168 353.936604,89.0887986 404.729027,94.7843593 C455.521449,100.47992 453.248404,166.828658 503.047619,267.581676 C552.846834,368.334694 429.214863,333.79184 422.621821,368.334694 C416.028779,402.877548 459.460313,408.714891 447.047619,478.302558 C434.634925,547.890225 393.143037,534.232355 384.112219,584.226051 C375.081402,634.219748 428.114609,647.776864 422.621821,702.726051 C418.959962,739.358843 399.082617,770.294271 362.989785,795.532337 L283.039666,795.532337 Z" id="Path-15" fill="#2F3F00"></path>
        <path d="M241,795.5 C291.23925,705.510759 325.335021,654.844092 343.287313,643.5 C370.215752,626.483862 390.485993,678.391606 438.02417,671 C485.562348,663.608394 440.207029,713.999947 475.145551,733.112227 C510.084074,752.224507 532.71238,717.149056 524.046991,752.461108 C521.112708,764.418514 547.229911,784.871004 535.076786,791.797109 C527.227741,796.270306 507.250662,797.515382 475.145551,795.532337 L241,795.5 Z" id="Path-6-Copy" fill="#677A4E"></path>
        <circle id="Oval" fill="#F5CD40" cx="844.5" cy="124.5" r="76.5"></circle>
        <path d="M237.199007,794 C220.362156,725.3607 226.637546,660.967468 256.025178,600.820305 C300.106626,510.599561 374.772313,490 385.732034,490 C396.691755,490 335.370872,523.042028 311.465521,600.820305 C295.52862,652.67249 289.139067,717.065722 292.296862,794 L237.199007,794 Z" id="Path-5" fill="#4C7200"></path>
        <g id="ðŸ˜Human/Standing" transform="translate(365.000000, 316.000000)">
            <g id="Head/Front" transform="translate(148.000000, 0.000000)">
                <path d="M49.5588235,0.451923077 C61.4329457,0.451923077 71.0588235,10.077801 71.0588235,21.9519231 L71.0586893,23.5114213 C75.1453736,39.2558932 80.1632682,72.1420024 74.7949618,77.4020022 L40.0376089,77.4020022 L40.036,77.3749231 L38.625,77.375 C26.7508779,77.375 17.125,67.7491221 17.125,55.875 L17.125,21.9519231 C17.125,10.077801 26.7508779,0.451923077 38.625,0.451923077 L49.5588235,0.451923077 Z" id="Hair-Back" fill="#D6C7A9"></path>
                <g id="Head" transform="translate(20.720588, 5.259615)" fill="#B28B67">
                    <path d="M45.7159165,10.9782848 C52.6611676,23.9604023 51.8358912,56.89062 42.859773,59.2108865 C39.2802384,60.1361722 31.6549114,57.8697078 23.8939689,53.1787597 L28.7647059,87.7403846 L0,87.7403846 L9.90178358,41.4535438 C4.37950459,34.9528125 0.642004013,26.986203 1.26657752,18.0594398 C3.06623402,-7.66228434 38.7706654,-2.00383276 45.7159165,10.9782848 Z"></path>
                </g>
                <path d="M43.494347,1.65384615 C57.3733543,1.65384615 61.7541427,8.13019502 65.4840808,13.6287088 C62.6948756,23.2263013 51.8705925,24.6493011 42.2526691,30.6318659 C41.119716,29.7080651 39.6739722,29.1543426 38.0992647,29.1543426 C34.4586524,29.1543426 31.5073529,32.1139987 31.5073529,35.7649195 C31.5073529,39.4158404 34.4586524,42.3754965 38.0992647,42.3754965 C38.1993875,42.3754965 38.2989889,42.373258 38.3980219,42.3688281 C39.7241862,56.6444781 39.1932962,72.9485452 35.2434912,76.8186622 L0.486138263,76.8186622 C-1.45043814,43.0763038 17.26555,56.1428554 17.26555,24.3735488 C18.4322923,23.2303458 19.5347763,22.0988347 20.6256894,21.122986 L20.5874041,20.1883419 C26.6060278,7.83201139 34.2416754,1.65384615 43.494347,1.65384615 Z" id="Hair-Front" fill="#D6C7A9"></path>
            </g>
            <g id="Bottom/Skinny-Jeans-1" transform="translate(0.000000, 191.312207)">
                <polygon id="Leg" fill="#997659" points="157 0 246.167696 149.176247 313.017813 275.292189 327.416736 275.292189 215.408425 6.11271453e-13"></polygon>
                <g id="Accessories/Shoe/Flat-Pointy" transform="translate(301.000000, 238.966527)" fill="#191847">
                    <path d="M0,48 L1.19672131,22.8 L26.3278689,22.8 C38.2443449,31.2 53.801722,38 73,43.2 L73,48 L27.5245902,48 L11.9672131,45.6 L11.9672131,48 L0,48 Z" id="Shoe"></path>
                </g>
                <path d="M294.451668,255.097235 L322.219736,246.691377 C310.053789,210.296397 295.142693,170.245057 277.486449,126.537355 C259.830205,82.829653 240.868055,40.6505347 220.6,0 L142.172888,0 C164.706606,51.4210599 188.59537,98.1436935 213.839179,140.167901 C239.082987,182.192108 265.953817,220.501886 294.451668,255.097235 Z" id="Pant" fill="#70312D"></path>
                <path d="M151.139954,0 C142.724198,52.4215573 126.492509,119.396165 124.960676,121.463021 C123.939453,122.840926 87.1751816,135.168833 14.6678612,158.446744 L17.7782022,171.152796 C104.243012,158.668702 149.802592,148.983028 154.456944,142.095775 C161.438472,131.764894 196.298183,50.1507126 209.8,0 L151.139954,0 Z" id="Leg" fill="#B28B67"></path>
                <path d="M40.1554093,147.463334 L45.6339363,167.92735 C110.304576,173.603323 149.929705,169.502075 164.509324,155.623608 C179.088943,141.745141 195.705405,89.8706048 214.35871,0 L139.573775,0 C127.75548,73.5919326 121.148284,111.932553 119.752187,115.021861 C118.35609,118.111169 91.8238307,128.924993 40.1554093,147.463334 Z" id="Pant" fill="#863C37"></path>
                <g id="Accessories/Shoe/Flat-Pointy" transform="translate(30.400000, 184.928870) rotate(80.000000) translate(-30.400000, -184.928870) translate(-6.200000, 160.912134)" fill="#191847">
                    <path d="M0,48 L1.19672131,22.8 L26.3278689,22.8 C38.2443449,31.2 53.801722,38 73,43.2 L73,48 L27.5245902,48 L11.9672131,45.6 L11.9672131,48 L0,48 Z" id="Shoe"></path>
                </g>
            </g>
            <g id="Body/Long-Sleeve-1" transform="translate(128.000000, 71.361502)">
                <path d="M194.081285,49.5900712 C199.277253,48.5215766 211.959125,39.1002903 214.144274,41.0131674 C217.377062,43.8431458 214.49451,52.5328195 211.098178,56.8554668 C204.750438,64.9344893 199.494784,67.6972712 186.504617,71.3151507 C179.712687,73.2067649 172.369409,76.9983427 164.474784,82.6898841 L163.433594,64.3621609 L181.71751,54.3293169 C184.283002,44.5783743 187.349736,39.6723454 190.91771,39.6112301 C193.658656,38.3373392 188.885317,50.6585658 194.081285,49.5900712 Z M162.611891,7.82512068 C159.254654,13.7771385 155.991332,20.1885844 157.701712,22.0222722 C159.412092,23.8559601 163.677078,21.294379 165.717536,24.3410669 C167.077841,26.3721923 159.791449,29.5807984 143.858361,33.9668855 L113.613001,61.6284056 L98.2417114,45.1489418 L139.866332,22.3771128 C146.788252,14.1666149 153.608271,7.79001288 160.326389,3.24730681 C162.379229,2.39124978 165.969128,1.87310291 162.611891,7.82512068 Z" id="Skin" fill="#B28B67"></path>
                <path d="M79.3170671,35.6208443 C93.7412563,37.7496463 113.425037,37.7530899 135.971946,28.0071745 L141.179631,47.2057259 C124.827635,58.9772646 103.132123,67.340712 85.8332816,64.1011917 C72.2008411,61.5482712 67.8228103,43.8953748 79.3170671,35.6208443 Z" id="Sleeve" fill="#C57096" transform="translate(106.948779, 46.405421) rotate(-9.000000) translate(-106.948779, -46.405421) "></path>
                <path d="M66.3702751,4.59093751 L77.3778063,4.59135095 C79.0276321,25.7636297 86.9143344,47.1354314 94.2532548,68.147758 C94.4676659,68.2315393 94.6845821,68.3107117 94.9033199,68.3857489 C109.97254,73.5551936 136.827725,69.2726824 175.468873,55.5382153 C184.505874,74.2129851 188.683453,87.5266638 188.00161,95.4792513 C156.509815,111.910722 129.640786,119.603175 107.608783,120.641162 L107.615509,120.632709 C108.537876,132.926348 107.072402,144.90444 101.642568,156.437093 C90.6346362,179.817302 26.177081,158.164622 4.50447572,162.426398 C-9.06754698,118.399442 17.1743696,100.507066 17.1954842,72.3360531 C17.218607,41.4857925 35.7647084,4.59135095 39.41344,4.59135095 L39.41344,4.59135095 L46.6107348,4.59183308 C47.1188622,3.48865586 47.6434325,2.38448467 48.1844808,1.27966148 C54.6888015,-0.445510492 61.2867785,0.969548217 66.3702751,4.59093751 Z" id="Clothes" fill="#C57096"></path>
            </g>
        </g>
        <path d="M734.057697,795.768968 C810.308962,764.595391 848.434595,727.961144 848.434595,685.866228 C848.434595,622.723853 731.026574,604.467938 734.057697,549.257976 C737.08882,494.048013 812.038933,465 860.560535,465 C909.082136,465 950.965972,494.63828 955.557697,549.257976 C960.149421,603.877671 879.057697,625.877077 879.057697,685.028313 C879.057697,724.46247 904.557697,761.376022 955.557697,795.768968 L734.057697,795.768968 Z" id="Path-14" fill="#888747"></path>
        <path d="M734.057697,795.768968 C810.308962,764.595391 848.434595,727.961144 848.434595,685.866228 C848.434595,622.723853 757.885714,671.635732 816.078017,549.257976 C874.270321,426.880219 621.565405,397.932193 749,361.53754 C876.434595,325.142886 950.965972,494.63828 955.557697,549.257976 C960.149421,603.877671 879.057697,625.877077 879.057697,685.028313 C879.057697,724.46247 904.557697,761.376022 955.557697,795.768968 L734.057697,795.768968 Z" id="Path-14-Copy" fill="#2A3C01"></path>
        <path d="M323.155694,795.5 C340.334989,729.33814 352.948315,685.986243 360.995674,665.44431 C371.804392,637.853645 388.876473,619.900939 393.929345,612.720705 C409.973129,589.922164 425.514671,585.51634 451.781098,612.720705 C478.047525,639.92507 494.407967,689.587917 482.168108,704.110352 C469.928249,718.632788 424.985768,645.339483 402.661901,671 C387.779323,688.107011 387.779323,729.607011 402.661901,795.5 L323.155694,795.5 Z" id="Path-30" fill="#405B1D"></path>
        <path d="M844.5,795.224454 C832.252393,752.163922 820.71605,721.792555 809.89097,704.110352 C799.065889,686.42815 777.102233,655.964934 744,612.720705" id="Path-32" stroke="#779333" stroke-width="8"></path>
        <path d="M844.5,795.224454 C832.252393,752.163922 820.71605,721.792555 809.89097,704.110352 C799.065889,686.42815 775.7689,666.224699 740,643.5" id="Path-32-Copy" stroke="#779333" stroke-width="8"></path>
        <path d="M844.5,795.224454 C832.252393,752.163922 820.71605,721.792555 809.89097,704.110352 C799.065889,686.42815 778.7689,675.391366 749,671" id="Path-32-Copy-2" stroke="#779333" stroke-width="8"></path>
        <circle id="Oval" fill="#EAE118" cx="740" cy="606" r="19"></circle>
        <circle id="Oval-Copy" fill="#E4DC25" cx="737.5" cy="641.5" r="11.5"></circle>
        <path d="M131.5,795.5 L1158.5,795.5" id="Line" stroke="#000000" stroke-width="3" stroke-linecap="square"></path>
    </g>
</svg>