<?xml version="1.0" encoding="UTF-8"?>
<svg width="2185px" height="2585px" viewBox="0 0 2185 2585" version="1.1" xmlns="http://www.w3.org/2000/svg" xmlns:xlink="http://www.w3.org/1999/xlink">
    <!-- Generator: Sketch 57.1 (83088) - https://sketch.com -->
    <title>Artboard</title>
    <desc>Created with Sketch.</desc>
    <defs>
        <linearGradient x1="50%" y1="0%" x2="50%" y2="100%" id="linearGradient-1">
            <stop stop-color="#5F00EE" offset="3.41532939%"></stop>
            <stop stop-color="#DA97AF" offset="100%"></stop>
        </linearGradient>
        <path d="M221.48393,436.057463 C319.674624,566.057463 600.293371,526.511779 596.98393,539.144885 C574.154254,626.292428 706.956636,745.301236 762.98393,827.144885 C767.147183,833.226491 771.50271,839.400498 776.050511,845.666906 L776.050511,845.666906 C808.489591,890.364675 798.551959,952.896447 753.85419,985.335526 C736.477922,997.946225 715.504323,1004.62962 694.0355,1004.3972 C417.334453,1001.40162 278.98393,1035.04616 278.98393,1105.33081 C278.98393,1236.5 36.5570702,1370.28377 5.70770555,1507.03686 C-12.8635047,1589.36174 16.2593529,1680.34078 93.0762783,1779.97397 C108.647822,1800.1706 131.347355,1813.65485 156.531987,1817.66869 C299.649767,1840.47833 394.467082,1884.89935 440.98393,1950.93175 C483.512643,2011.30284 312.045681,2073.01904 335.98393,2154.38321 C359.655646,2234.84146 583.577706,2316.6742 630.98393,2391.99494 C691.785459,2488.59862 822.421691,2486.7765 1194.48393,2500.44226 C1566.54617,2514.10802 1405.48393,2451.93654 1832.98393,2441.97334 C2106.80084,2435.59183 1684.98986,2164.76166 1988.58231,1898.14489 C2133.93387,1770.49624 1828.36677,1422.39443 2033.96515,1220.64489 C2249.6217,1009.02546 1773.87994,954.630349 1955.93193,731.387617 C2137.98393,508.144885 1919.73097,390.665689 1881.48393,328.652866 C1630.21863,-78.7425568 1190.98393,241.795554 806.98393,38.9702198 C580.987736,-80.3989302 463.421934,112.844895 315.48393,120.591669 C31.5358205,135.460613 181.081577,382.566591 221.48393,436.057463 Z" id="path-2"></path>
        <path d="M856.182555,15.5332392 C852.143231,13.0941842 847.514303,11.8050409 842.795709,11.8050409 L797.772401,11.8050409 C795.477237,11.8050409 793.182753,11.7260242 790.893027,11.5681313 L729.701587,7.34854681 C728.122878,7.23968354 726.546974,7.09336196 724.975209,6.90970569 L673.663467,0.914076363 C669.81126,0.46395709 665.93613,0.238325688 662.057714,0.238325688 L588.803043,0.238325688 L564.68151,0.238325688 C558.463185,0.238325688 552.41497,2.26904835 547.456613,6.02168327 L546.621589,6.65365483 C542.094802,10.0796643 537.24312,13.0537429 532.136121,15.5332392 C527.13057,17.9634817 522.9627,21.8301389 520.164492,26.6396765 L519.59557,27.617535 C516.463836,33.000334 511.465733,37.046797 505.549005,38.989632 L490.627318,43.8893626 C486.687197,45.1831528 482.831374,46.720791 479.082186,48.4933694 L433.259776,70.1577439 C427.176745,73.03374 421.399515,76.5163475 416.015918,80.5526211 L409.660253,85.3176883 C400.311809,92.3265478 393.661619,102.340419 390.827805,113.67563 L387.018706,128.911971 C384.880584,137.464427 380.639275,145.347057 374.680167,151.843603 L374.393807,152.155788 C368.555663,158.520461 361.917583,164.101994 354.64529,168.761041 L345.524469,174.604361 C336.049918,180.674302 327.667762,188.29977 320.731152,197.159497 L315.771084,203.494702 C311.516242,208.929163 308.08169,214.95844 305.577135,221.389945 C303.136019,227.658544 298.581365,232.877209 292.700553,236.143771 L291.607041,236.751175 C284.95384,240.44677 279.510826,245.986906 275.933467,252.704422 L272.724064,258.730996 C267.705195,268.15536 260.896619,276.510533 252.67955,283.328705 L247.793161,287.383222 C242.777458,291.545038 238.342619,296.360785 234.607252,301.701668 C230.86748,307.048849 226.523651,311.947005 221.661816,316.299107 L215.533872,321.784573 C208.460494,328.11635 202.324779,335.423097 197.311483,343.484793 L184.556326,363.995892 C182.92827,366.613909 181.180016,369.155237 179.317168,371.611733 L178.059401,373.270322 C175.505858,376.637621 171.523431,378.615627 167.297407,378.615627 L163.228887,378.615627 C156.80507,378.615627 151.114184,382.758152 149.140148,388.871139 L149.067589,389.095832 C146.825191,396.039857 145.68327,403.292023 145.68327,410.589135 L145.68327,411.386482 C145.68327,417.909211 140.395554,423.196927 133.872825,423.196927 L128.48784,423.196927 C122.595275,423.196927 117.136135,426.293191 114.111937,431.350517 L110.711411,437.037169 C109.746023,438.651573 109.236223,440.497438 109.236223,442.378468 C109.236223,443.965934 107.949327,445.25283 106.361861,445.25283 L100.925781,445.25283 C95.720167,445.25283 90.8448883,447.803408 87.876514,452.079759 L82.9558601,459.168636 C80.743435,462.355938 79.5578132,466.143205 79.5578132,470.023117 C79.5578132,473.774544 77.7918368,477.307111 74.7910085,479.558384 L73.1229139,480.809818 C68.8852805,483.988964 65.4018581,488.064549 62.9213849,492.745549 L61.0822473,496.216259 C57.358386,503.243706 52.8088612,509.801446 47.5302541,515.750267 L42.7187754,521.172648 C38.1047976,526.372453 34.045608,532.039209 30.607055,538.080989 L29.9489457,539.237334 C26.0803256,546.034772 21.3034361,552.273315 15.7501229,557.780775 L7.82408965,565.641363 C2.8166514,570.607454 -8.63671287e-16,577.367784 0,584.420195 L0,595.439542 L0,608.712416 C2.23682599e-14,610.04994 0.375405776,611.360613 1.08350774,612.495321 C1.53179017,613.213677 2.4775378,613.432615 3.19589418,612.984333 C3.31963064,612.907116 3.43171586,612.812639 3.5287609,612.703757 L7.67996615,608.046203 C11.3182687,603.964114 15.7386402,600.653528 20.6793602,598.310457 L23.616744,596.917442 C29.1538427,594.291546 34.9205989,592.180193 40.8442279,590.610032 L49.1949493,588.396527 C58.2230616,586.003468 67.5419155,584.887002 76.8798179,585.079679 L88.3105526,585.315539 C97.6175182,585.507578 106.82544,587.267955 115.546894,590.522601 L120.540931,592.386261 C125.985141,594.417915 131.241903,596.920241 136.251538,599.864829 L167.663641,618.328394 C168.192542,618.639274 168.718571,618.955015 169.241661,619.275576 L228.633575,655.672266 C262.987295,676.724993 276.23282,720.100764 259.500436,756.753496 L187.89054,913.616882 C187.878049,913.644245 187.865545,913.671602 187.853029,913.698953 L141.480582,1015.03688 C140.001323,1018.26951 138.695498,1021.57872 137.568667,1024.95042 L119.122658,1080.1445 C119.032653,1080.41381 118.943796,1080.68351 118.856089,1080.95358 L105.801495,1121.15133 C98.7738727,1142.79082 110.619127,1166.0301 132.25861,1173.05772 C132.72384,1173.20881 133.191723,1173.3516 133.662038,1173.48602 L278.494239,1214.88146 C285.351828,1216.84147 291.980053,1219.5295 298.265769,1222.89966 L511.159791,1337.04514 C513.54159,1338.32217 515.97418,1339.50212 518.451567,1340.58208 L653.544203,1399.47285 C658.637238,1401.69305 663.906442,1403.48494 669.297112,1404.82992 L794.329147,1436.02562 C802.246907,1438.00111 810.37671,1439 818.537195,1439 L964.851636,1439 L964.851636,1439 L1029.92434,1324.86647 C1031.06603,1322.864 1032.27663,1320.90161 1033.55394,1318.98281 L1093.00618,1229.67309 C1094.34963,1227.65493 1095.61925,1225.58859 1096.81252,1223.47816 L1161.05442,1109.85853 C1163.04438,1106.33904 1164.81907,1102.7021 1166.3687,1098.96775 L1210.0627,993.672817 C1210.29542,993.112001 1210.53324,992.553315 1210.77614,991.996831 L1255.09848,890.453001 C1261.04493,876.829486 1276.90953,870.606002 1290.53305,876.552459 C1295.76878,878.837778 1300.14157,882.729746 1303.01861,887.66515 L1326.21238,927.452705 C1328.55133,931.465031 1331.16695,935.309542 1334.04025,938.958319 L1408.94542,1034.0797 C1412.85982,1039.05056 1416.29362,1044.3817 1419.20064,1050.00141 L1435.1026,1080.74234 C1443.1785,1096.35429 1455.22672,1109.56181 1470.03316,1119.034 L1534.29817,1160.14649 C1541.97996,1165.06079 1550.29785,1168.90124 1559.02056,1171.56105 L1604.75609,1185.50715 C1606.23172,1185.95712 1607.71757,1186.37287 1609.21244,1186.75409 L1631.21752,1192.36573 C1643.52712,1195.50487 1656.45559,1195.26519 1668.64038,1191.67197 C1680.79928,1188.08637 1691.68568,1181.11236 1700.02592,1171.56585 L1704.85549,1166.03778 C1712.44988,1157.34499 1718.48192,1147.40298 1722.68436,1136.65221 L1733.76472,1108.3062 C1736.30134,1101.81695 1738.15283,1095.08037 1739.28901,1088.20622 L1743.04707,1065.46902 C1743.29171,1063.98891 1742.29016,1062.59073 1740.81005,1062.34609 C1739.55848,1062.13923 1738.33038,1062.82618 1737.85163,1064.00093 L1732.23686,1077.77837 C1729.88627,1083.5462 1727.00196,1089.08181 1723.62153,1094.31304 L1706.41472,1120.94063 C1702.79349,1126.5445 1698.6205,1131.7719 1693.95815,1136.54466 L1672.52784,1158.48246 C1666.66933,1164.47971 1659.77399,1169.3674 1652.17506,1172.90934 C1644.85748,1176.32014 1636.4385,1176.476 1628.99969,1173.33839 L1603.43526,1162.55558 C1588.40268,1156.21499 1575.14977,1146.29264 1564.8325,1133.65399 L1548.43116,1113.56234 C1540.33419,1103.64355 1534.21741,1092.26207 1530.41313,1080.03624 L1518.61782,1042.12961 C1514.06511,1027.49854 1512.93561,1012.01692 1515.31651,996.879994 L1520.26465,965.421534 C1521.7694,955.854831 1524.65585,946.557442 1528.83357,937.820582 L1555.09087,882.908741 C1555.27615,882.521253 1555.45894,882.132575 1555.63922,881.742732 L1578.27478,832.794273 C1579.78625,829.525777 1581.12007,826.178024 1582.2704,822.765644 L1589.08575,802.548446 C1594.06392,787.781099 1593.91317,771.765936 1588.6579,757.094915 L1586.31651,750.558521 C1582.52439,739.972138 1576.22472,730.461676 1567.95622,722.84042 L1565.86851,720.916135 C1558.90403,714.49682 1552.88686,707.12061 1547.99737,699.008608 L1531.59623,671.797966 C1525.60042,661.850497 1521.38341,650.934536 1519.13432,639.539649 L1512.78118,607.351883 C1512.0592,603.694026 1511.13321,600.079408 1510.00756,596.524963 L1491.14025,536.948115 C1489.46376,531.654313 1488.23113,526.230069 1487.45513,520.731635 L1482.666,486.797693 C1480.55452,471.836515 1475.0802,457.54831 1466.65429,445.006413 L1453.8384,425.93007 C1445.49876,413.51659 1434.48113,403.131631 1421.59671,395.53981 L1381.47959,371.901802 C1376.98702,369.254668 1372.70838,366.260194 1368.68282,362.945777 L1308.25792,313.195409 C1305.46954,310.899613 1302.55882,308.756572 1299.53856,306.77571 L1259.43586,280.474023 C1241.2963,268.577044 1227.51727,251.104114 1220.17714,230.69078 L1213.3451,211.690495 L1213.3451,211.690495 L1196.04249,240.571419 C1189.84439,250.917061 1180.8329,259.287505 1170.05881,264.706703 C1159.79015,269.871679 1147.5908,269.413141 1137.73884,263.491891 L1036.73365,202.785503 C1027.88016,197.46436 1019.90457,190.803608 1013.09067,183.040262 L969.364173,133.220917 C968.617491,132.370192 967.856417,131.532206 967.081283,130.707321 L867.295923,24.517531 C864.018609,21.029872 860.27947,18.0070697 856.182555,15.5332392 Z" id="path-4"></path>
        <linearGradient x1="50%" y1="0%" x2="50%" y2="100%" id="linearGradient-6">
            <stop stop-color="#FDE8F0" offset="0%"></stop>
            <stop stop-color="#FBCDDC" offset="100%"></stop>
        </linearGradient>
        <path d="M42.9616475,21.4444124 L43.2071244,21.1856033 C48.5648639,15.5368765 55.3465864,11.4373013 62.8382057,9.31854525 L78.0633121,5.01262879 C86.9178683,2.50841121 96.0756971,1.23832569 105.277559,1.23832569 L134.055461,1.23832569 C137.499907,1.23832569 140.905404,1.96685435 144.048378,3.3760829 L144.773382,3.70115594 C147.467256,4.90901958 150.213297,5.99699519 153.003437,6.96188551 L163.258855,10.5084301 C167.201387,11.8718427 171.054741,13.4806206 174.79633,15.3253333 L200.250706,27.8750849 C202.873285,29.1680933 205.554768,30.338029 208.286406,31.3810755 L239.675828,43.3667867 C245.590903,45.6253942 251.228111,48.5534209 256.477454,52.0937337 L280.567521,68.3407876 L280.567521,68.3407876 L310.122084,92.2635227 L347.915021,123.566343 L381.099768,149.02379 L426.776972,171.41903 L517.813409,205.993336 L590.607389,227.97964 L633.466203,237.228802 L645.643097,237.228802 L660.799778,232.672778 L678.806164,227.97964 L688.730755,227.97964 L716.693047,224.537364 L728.279766,224.537364 L746.72216,224.537364 L751.645913,224.537364 C754.920845,224.537364 758.188206,224.851914 761.402991,225.47668 L765.516753,226.276155 C771.314759,227.402949 776.868099,229.545228 781.920731,232.604221 L784.498224,234.164701 C787.855442,236.197247 790.908748,238.69379 793.567672,241.580358 L794.324993,242.402518 C796.482908,244.745183 798.940845,246.792511 801.635015,248.491371 C804.27309,250.154858 806.31672,252.610917 807.472923,255.507437 L808.841157,258.935138 C810.357608,262.734154 810.218334,266.993904 808.456966,270.685751 C806.651276,274.470498 803.819602,277.672485 800.284075,279.927453 L797.626637,281.622374 C792.358232,284.982576 786.239521,286.767747 779.990758,286.767747 L763.789083,286.767747 L746.72216,286.767747 L736.359153,286.767747 L736.359153,286.767747 L732.871093,296.365707 L736.359153,309.923126 L738.159041,313.628682 C741.594684,320.701879 746.239629,327.120476 751.884392,332.594999 C757.521299,338.061903 764.144866,342.40892 771.403266,345.405147 L783.522815,350.408031 C787.542852,352.06748 791.666864,353.462911 795.868581,354.585434 L818.954054,360.752906 C821.224665,361.359518 823.515955,361.885894 825.823656,362.331054 L842.755622,365.59726 C848.997399,366.80131 855.339765,367.40745 861.696612,367.40745 L868.037719,367.40745 C875.051268,367.40745 882.037669,368.278494 888.836513,370.000583 C895.470736,371.680975 901.352875,375.530785 905.547895,380.938042 L907.38178,383.301866 C910.856333,387.780462 911.666811,393.776659 909.505918,399.016972 L909.302414,399.510483 C907.244981,404.499898 902.843258,408.141215 897.556663,409.227133 L895.780382,409.591998 C891.339229,410.504253 886.81703,410.963907 882.283152,410.963907 L881.457512,410.963907 C877.859953,410.963907 874.646939,413.215077 873.418469,416.596394 C872.072291,420.301698 869.891845,423.647697 867.04578,426.375588 L863.844239,429.444196 C860.472822,432.675625 856.879187,435.66692 853.089719,438.396117 L841.103393,447.028738 C840.906625,447.170451 840.710373,447.31288 840.514641,447.456021 L831.932878,453.731969 C830.144501,455.039831 827.98638,455.744765 825.7708,455.744765 C823.887635,455.744765 822.361028,457.271371 822.361028,459.154536 L822.361028,460.994777 C822.361028,464.308432 820.835715,467.43764 818.225471,469.478948 L816.790491,470.601156 C813.180945,473.423955 808.730512,474.957523 804.148261,474.957523 L802.478123,474.957523 C796.692855,474.957523 790.950197,475.94693 785.498489,477.882957 L775.303484,481.503438 C774.622628,481.745226 773.939171,481.979627 773.253233,482.206602 L757.527957,487.410048 C752.416924,489.101273 747.177663,490.377003 741.86126,491.2248 L724.517529,493.990571 C719.309369,494.821106 714.043667,495.238326 708.769701,495.238326 L698.112383,495.238326 C691.871666,495.238326 685.64465,494.65413 679.51283,493.493385 L674.765266,492.594677 C665.695293,490.877743 657.416443,486.293444 651.148104,479.517 L633.69766,460.652039 C633.543356,460.485227 633.38962,460.317889 633.236457,460.150029 L612.875465,437.835336 C610.724512,435.477992 608.687632,433.019037 606.771819,430.466915 L594.473332,414.083663 C588.762272,406.475758 581.222857,400.432884 572.554029,396.515248 L568.713019,394.77941 C562.480854,391.962956 555.976203,389.793256 549.301209,388.304381 L505.200441,378.467589 C503.533813,378.095844 501.87698,377.68147 500.231572,377.224877 L448.763252,362.942644 C445.690997,362.090107 442.579726,361.384989 439.440103,360.829706 L397.841365,353.472434 C395.683675,353.090819 393.539111,352.638388 391.411146,352.115876 L325.411961,335.910061 C324.549148,335.698201 323.689197,335.474852 322.832336,335.240073 L259.900668,317.996891 C255.461484,316.780561 251.111574,315.259192 246.881966,313.443637 L180.97112,285.15146 C177.547567,283.681902 174.208813,282.02217 170.970477,280.180025 L116.639297,249.27345 C115.426322,248.583443 114.227923,247.868121 113.044889,247.127954 L84.5194349,229.280967 C79.4749254,226.124864 74.7221863,222.524803 70.3177884,218.523634 L64.7119849,213.431051 C59.3400758,208.550949 52.8275712,205.099565 45.7731756,203.394189 L43.8224352,202.922604 C37.9672145,201.507124 32.2518693,199.565474 26.7461102,197.121337 L25.4819651,196.560152 C19.2729387,193.803818 14.0626408,189.203362 10.5585815,183.383486 L8.47114493,179.916472 C3.58294387,171.797681 1,162.500117 1,153.023341 L1,143.909406 C1,138.051494 1.51472502,132.204911 2.53823677,126.437108 L6.91157367,101.792012 C8.03618364,95.4544889 9.77003844,89.2403476 12.0890073,83.2360722 L23.0629165,54.8224208 C24.1816536,51.9257862 25.4347015,49.0828315 26.8179871,46.3027982 L29.8817866,40.1453824 C33.2893622,33.2970686 37.6976506,26.9943052 42.9616475,21.4444124 Z" id="path-7"></path>
        <path d="M0,204.061447 L0,185.660474 L0,172.770081 C2.72517007e-15,164.29694 2.00592491,155.944161 5.85367605,148.395059 L7.38464735,145.391368 C11.1986088,137.90856 20.1640118,134.668344 27.8806268,137.983848 L30.8133237,139.243904 C37.9779602,142.322246 44.7579396,146.228057 51.0150634,150.881723 L69.0658738,164.306812 C75.5940897,169.162099 82.6904272,173.202569 90.1975287,176.338625 L95.7034972,178.638717 C106.27932,183.056717 118.321431,182.213562 128.178412,176.364914 L144.946787,166.415384 C152.260178,162.075977 160.097219,158.687162 168.268176,156.33098 L186.096727,151.18993 C202.718442,146.396883 220.299266,145.997709 237.121394,150.031409 L296.935778,164.374025 C298.978086,164.86374 301.004459,165.417673 303.011883,166.034999 L310.581669,168.362871 C314.898674,169.690442 319.474507,167.267028 320.802079,162.950023 C321.041573,162.171233 321.163338,161.361025 321.163338,160.546242 L321.163338,136.905627 C321.163338,122.231102 317.933675,107.736406 311.703523,94.4500645 L297.128879,63.3683648 C292.8768,54.3004371 287.286611,45.9227287 280.545447,38.5156918 L261.977476,18.1136292 C259.951292,15.8873039 260.113538,12.4399636 262.339863,10.4137791 C263.904116,8.99014852 266.150741,8.59999277 268.103392,9.41286709 L283.868936,15.9759472 C288.426436,17.8732008 292.837189,20.1053301 297.065016,22.6540261 L334.776658,45.3880477 C334.926245,45.478224 335.075594,45.5687921 335.224706,45.6597511 L354.552711,57.4499345 C366.981494,65.0315565 375.547228,77.5943905 378.064856,91.9337483 L383.608773,123.509583 C384.61126,129.219334 385.115352,135.005444 385.115352,140.802533 L385.115352,158.875452 C385.115352,174.945017 395.198605,189.286632 410.320078,194.724644 L455.186038,210.859422 C455.712635,211.048798 456.237634,211.242591 456.760978,211.440781 L532.617858,240.167654 C540.588231,243.186021 548.140041,247.210932 555.089655,252.144515 L561.72243,256.853172 C572.878259,264.772779 581.473422,275.783102 586.448816,288.527441 L589.957815,297.515649 C596.52963,314.349176 598.417166,332.648912 595.419765,350.469462 L592.148782,369.916549 C590.621398,378.997357 587.847071,387.823683 583.904446,396.145323 L570.271862,424.919412 C569.432202,426.69167 568.54059,428.438845 567.598183,430.15867 L555.869157,451.563282 C548.605642,464.818664 536.893634,475.082539 522.799733,480.543834 C508.5072,486.082097 493.001568,487.730911 477.863976,485.322145 L426.348372,477.124736 C424.100892,476.767106 421.866275,476.33286 419.648424,475.822756 L357.572488,461.545327 C355.849547,461.149052 354.1164,460.798536 352.374875,460.494151 L296.910649,450.800057 C294.729414,450.418819 292.561444,449.965237 290.410323,449.440062 L203.386851,428.194124 C201.705725,427.783694 200.035536,427.329694 198.377972,426.832585 L144.09882,410.554078 C136.238461,408.196729 128.698159,404.880797 121.648001,400.681081 L103.777818,390.03597 C96.6657945,385.7994 90.5744198,380.048062 85.9367556,373.190841 L85.8889342,373.120133 C81.2442024,366.252463 77.4715693,358.833824 74.6578857,351.035003 L73.9705917,349.129997 C70.7290682,340.145312 69.5434531,330.548113 70.5009992,321.044685 L72.276603,303.422218 C73.0457512,295.788595 72.9338454,288.091816 71.943094,280.483781 L71.1502423,274.395429 C69.7671671,263.774718 65.8998876,253.629623 59.8621687,244.783248 C53.8235586,235.935568 45.7943169,228.62722 36.4192425,223.445112 L20.3622684,214.569558 C16.2967054,212.322303 11.7273605,211.143491 7.08204472,211.143491 C3.17073942,211.143491 -6.98092586e-15,207.972752 0,204.061447 Z" id="path-9"></path>
        <path d="M3.6300674,468.948458 C1.22940248,458.218634 0.768374973,447.145772 2.26878746,436.253523 L5.25296834,414.589853 C6.58391926,404.927811 9.32122007,395.512453 13.3779197,386.64286 L26.7605345,357.383029 C27.4873378,355.793942 28.2556681,354.224179 29.0647337,352.675355 L50.1156456,312.376841 C50.3380055,311.95117 50.5634288,311.527106 50.7918982,311.104682 L67.2425076,280.688671 C68.5373532,278.294593 69.7339159,275.848649 70.8292062,273.356948 L80.6822043,250.942137 C84.4864946,242.287671 87.0443451,233.137472 88.279371,223.764792 L91.6266153,198.362369 C92.1973389,194.031116 92.4836208,189.667118 92.4836208,185.298425 L92.4836208,171.627787 C92.4836208,165.194213 87.268178,159.97877 80.8346033,159.97877 C73.1384442,159.97877 65.5121155,158.519076 58.3599213,155.677073 L46.2763417,150.87553 C39.0876563,148.019026 32.7535346,143.363303 27.8815418,137.354935 L27.7996242,137.25391 C23.0453704,131.390743 20.4508375,124.071617 20.4508375,116.52313 L20.4508375,113.15329 C20.4508375,108.069676 23.3293007,103.424411 27.8815418,101.161618 C32.7688703,98.7322618 38.1525043,97.46802 43.61032,97.46802 L61.3117372,97.46802 C66.3462159,97.46802 71.1672679,95.4345606 74.680983,91.8290395 C78.3256731,88.0891212 81.4141159,83.8449439 83.8516508,79.2265916 L86.3300005,74.5309081 C90.3989603,66.8215249 95.8267452,59.9103398 102.352047,54.1300754 L112.020353,45.5656652 C116.689854,41.4293126 121.736153,37.7389624 127.093265,34.5428702 L139.289254,27.2666537 C146.500508,22.9643662 154.224944,19.5875037 162.280183,17.2157955 L188.829793,9.39877983 C191.999688,8.46546584 195.213897,7.68984626 198.460587,7.07477593 L219.832677,3.02593386 C229.517592,1.19117214 239.491618,1.56450364 249.012273,4.11813707 L252.897624,5.16026695 C259.920376,7.04391184 267.159928,7.99794844 274.430909,7.99794844 C281.604466,7.99794844 288.649324,9.9031954 294.845046,13.5188509 L299.28548,16.1101681 C304.248762,19.0066048 307.300513,24.3209166 307.300513,30.0675249 C307.300513,35.7852969 304.16791,41.0434831 299.139735,43.7656835 L296.299702,45.3032474 C295.147836,45.9268555 294.20538,46.8762116 293.590191,48.0325966 C291.862298,51.2805595 293.094557,55.3142882 296.34252,57.0421818 L305.13896,61.7218262 C306.579779,62.4883321 308.001619,63.2899947 309.4032,64.1260938 L321.803563,71.523405 C326.38926,74.2589565 330.719681,77.4013258 334.74251,80.9125515 C338.754534,84.4143452 342.26735,88.4498244 345.182771,92.9061915 L346.894489,95.5226374 C350.878239,101.611999 353,108.730823 353,116.007538 L353,122.462242 C353,134.110522 350.963152,145.669083 346.981479,156.615713 L336.033627,186.714142 C331.196993,200.011278 323.593564,212.130628 313.725784,222.271328 L313.609395,222.390936 C303.718704,232.555181 291.375562,239.999063 277.770636,244.004515 L272.010135,245.700475 C256.575594,250.244587 246.462948,265.013888 247.808029,281.047128 L251.043044,319.608206 C251.276313,322.388755 251.393101,325.177849 251.393101,327.968166 L251.393101,380.375359 C251.393101,386.163428 250.890577,391.940569 249.891189,397.641707 L236.757208,472.566177 C235.289892,480.936666 232.761577,489.085977 229.23339,496.817083 L211.989569,534.602434 C210.962004,536.854074 209.851201,539.06679 208.659453,541.236009 L184.525359,585.164894 C179.004414,595.214119 171.77641,604.225666 163.164969,611.796059 L161.831436,612.968379 C154.302018,619.587556 144.61984,623.238326 134.594589,623.238326 C124.410582,623.238326 114.412083,620.51323 105.636468,615.345774 L88.9098968,605.496458 C83.1024281,602.076773 77.6555371,598.07876 72.652298,593.563393 L48.552763,571.813838 C39.817716,563.930557 32.7837334,554.347236 27.8815418,543.65071 L23.1043592,533.226952 C21.3371351,529.370889 19.817047,525.406292 18.5533068,521.357185 L8.48846721,489.108781 C7.66992663,486.486124 6.95981703,483.830847 6.35994593,481.14971 L3.6300674,468.948458 Z" id="path-11"></path>
        <radialGradient cx="50%" cy="85.3064737%" fx="50%" fy="85.3064737%" r="76.5715847%" gradientTransform="translate(0.500000,0.853065),scale(0.748334,1.000000),rotate(90.000000),scale(1.000000,2.372998),translate(-0.500000,-0.853065)" id="radialGradient-13">
            <stop stop-color="#FF7963" offset="0%"></stop>
            <stop stop-color="#FFC864" offset="100%"></stop>
        </radialGradient>
        <path d="M599.640582,491.754294 C637.880194,428.874149 657,374.488967 657,328.59875 C657,147.17321 509.92554,0.0987500222 328.5,0.0987500222 C147.07446,0.0987500222 0,147.17321 0,328.59875 C0,374.299173 18.9703978,428.46584 56.9111933,491.09875 L599.640582,491.754294 Z" id="path-14"></path>
        <linearGradient x1="50%" y1="0%" x2="50%" y2="100%" id="linearGradient-16">
            <stop stop-color="#838BFF" offset="0%"></stop>
            <stop stop-color="#8BC6F3" offset="100%"></stop>
        </linearGradient>
        <linearGradient x1="12.5105456%" y1="17.8251465%" x2="92.612908%" y2="72.985695%" id="linearGradient-17">
            <stop stop-color="#1F64CF" offset="0%"></stop>
            <stop stop-color="#A852DA" offset="100%"></stop>
        </linearGradient>
        <ellipse id="path-18" cx="184.105622" cy="184.535775" rx="184.105622" ry="184.535775"></ellipse>
        <linearGradient x1="50%" y1="0%" x2="50%" y2="100%" id="linearGradient-20">
            <stop stop-color="#2D61BC" offset="0%"></stop>
            <stop stop-color="#6829AD" offset="100%"></stop>
        </linearGradient>
        <linearGradient x1="50%" y1="0%" x2="50%" y2="100%" id="linearGradient-21">
            <stop stop-color="#3E5FD1" offset="0%"></stop>
            <stop stop-color="#6C5AD5" offset="100%"></stop>
        </linearGradient>
        <linearGradient x1="4.19823303%" y1="42.6835688%" x2="95.4460574%" y2="57.1767644%" id="linearGradient-22">
            <stop stop-color="#C5D9EE" offset="0%"></stop>
            <stop stop-color="#65767E" offset="100%"></stop>
        </linearGradient>
        <linearGradient x1="4.18699015%" y1="42.7554548%" x2="95.456977%" y2="57.106506%" id="linearGradient-23">
            <stop stop-color="#F0CEC4" offset="0%"></stop>
            <stop stop-color="#5387A3" offset="100%"></stop>
        </linearGradient>
        <circle id="path-24" cx="93.8854271" cy="93.8854271" r="93.8854271"></circle>
        <path d="M0,45.1616757 C50.6363166,3.75899937 99.3483197,-9.17626105 146.136009,6.35589445 C192.923699,21.8880499 223.211696,65.7694185 237,138 C183.338907,101.603703 143.266848,79.0097572 116.783825,70.2181619 C90.3008021,61.4265665 51.3728603,53.0744045 0,45.1616757 Z" id="path-26"></path>
        <path d="M0,24.9369772 C0,-11.2260412 105.5061,-4.28722566 182.783077,21.7740011 C260.060054,47.8352278 347,108.369197 347,144.532215 C347,180.695234 236.957998,172.148673 157.755943,148.695854 C78.5538881,125.243034 0,61.0999955 0,24.9369772 Z M65.8629174,53.1889864 C65.8629174,74.7827311 112.940028,113.08397 160.405583,127.088172 C207.871137,141.092373 273.818981,146.195715 273.818981,124.60197 C273.818981,103.008225 221.71613,66.8620425 175.404269,51.3003028 C129.092408,35.7385631 65.8629174,31.5952416 65.8629174,53.1889864 Z" id="path-28"></path>
        <linearGradient x1="73.7722584%" y1="6.39244384%" x2="42.0102831%" y2="77.6635865%" id="linearGradient-30">
            <stop stop-color="#FFFF00" stop-opacity="0.3" offset="0%"></stop>
            <stop stop-color="#FEFE24" stop-opacity="0" offset="100%"></stop>
        </linearGradient>
        <path d="M21.0232306,14.6643746 L19.7364051,15.2765846 C16.2035372,16.9573542 13.5597961,20.0708619 12.4739797,23.8294712 L11.6566624,26.6586568 C10.4434116,30.8583868 10.5587037,35.330565 11.986736,39.4622031 L12.2425888,40.2024462 C13.2849239,43.2181702 16.5746307,44.817918 19.5903548,43.7755829 C19.639272,43.7586755 19.6879598,43.7411115 19.7364051,43.7228957 L21.1349142,43.1970444 C23.7771693,42.2035342 26.7191818,42.395112 29.2102791,43.7228957 C31.7244659,45.0629863 33.6215257,47.3252245 34.5030099,50.0344613 L35.5599477,53.2829542 C36.8425628,57.225065 38.3690681,61.0836049 40.130627,64.8362373 L41.4582514,67.6644632 C43.9996907,73.0784679 48.6071168,77.2464048 54.247955,79.2341937 L68.9474091,84.4141706 C76.1619932,86.9565357 84.0715632,83.1689538 86.6139283,75.9543697 C87.4737259,73.5144833 87.6330239,70.8825653 87.0737751,68.3567905 L79.4069836,33.7307206 C77.0931559,23.2806177 72.8602116,13.3506194 66.9231262,4.4450332 L61.2548471,-4.05734563 C59.7617836,-6.29693033 56.7358744,-6.90210535 54.4962897,-5.40904187 C54.2224072,-5.22645267 53.9677272,-5.0165864 53.7361505,-4.78265754 C50.9894762,-2.00808404 49.0827642,1.4861831 48.235797,5.29736725 L46.7651339,11.9150593 C45.9854809,15.4233433 42.8737908,17.9194289 39.2799188,17.9194289 L37.8557491,17.9194289 C34.7749925,17.9194289 31.7644664,16.9991375 29.2102791,15.2765846 C26.7816702,13.6387223 23.6684198,13.4059201 21.0232306,14.6643746 Z" id="path-31"></path>
        <linearGradient x1="84.8892667%" y1="50%" x2="0%" y2="50%" id="linearGradient-33">
            <stop stop-color="#EAFF3A" stop-opacity="0" offset="0%"></stop>
            <stop stop-color="#ECBE55" offset="72.217264%"></stop>
            <stop stop-color="#DCC9F1" offset="100%"></stop>
        </linearGradient>
        <linearGradient x1="50%" y1="0%" x2="50%" y2="100%" id="linearGradient-34">
            <stop stop-color="#5F00EE" offset="0%"></stop>
            <stop stop-color="#F6AAC5" offset="100%"></stop>
        </linearGradient>
        <path d="M2138,2473.85005 C2186.23102,2568.83212 2329.43776,2568.63162 2701.5,2582.29737 C3073.56224,2595.96313 2952.60119,2531.94761 3380.10119,2521.98441 C3435.29864,2520.69799 3454.02809,2491.70319 3436.28954,2435 L2097.97272,2433 C2122.04019,2455.07892 2135.38262,2468.6956 2138,2473.85005 Z" id="path-35"></path>
    </defs>
    <g id="Page-1" stroke="none" stroke-width="1" fill="none" fill-rule="evenodd">
        <g id="Artboard" transform="translate(-1414.000000, 0.000000)">
            <g id="Rectangle" transform="translate(1506.623129, 81.855115)">
                <g id="Mask" transform="translate(0.392941, 0.000000)">
                    <mask id="mask-3" fill="white">
                        <use xlink:href="#path-2"></use>
                    </mask>
                    <use fill="url(#linearGradient-1)" xlink:href="#path-2"></use>
                </g>
            </g>
            <g id="Group-4" transform="translate(1414.000000, 218.000000)">
                <g id="Group-8" transform="translate(710.000000, 0.000000)" fill="#A167E7">
                    <circle id="Oval-Copy-17" cx="398" cy="7" r="7"></circle>
                    <circle id="Oval-Copy-20" cx="1179" cy="209" r="13"></circle>
                    <circle id="Oval-Copy-21" cx="418" cy="337" r="13"></circle>
                    <circle id="Oval-Copy-22" cx="990" cy="470" r="7"></circle>
                    <circle id="Oval-Copy-23" transform="translate(232.000000, 394.000000) scale(-1, 1) translate(-232.000000, -394.000000) " cx="232" cy="394" r="13"></circle>
                    <circle id="Oval-Copy-24" transform="translate(13.000000, 52.000000) scale(-1, 1) translate(-13.000000, -52.000000) " cx="13" cy="52" r="13"></circle>
                    <circle id="Oval-Copy-26" transform="translate(1192.000000, 431.000000) scale(-1, 1) translate(-1192.000000, -431.000000) " cx="1192" cy="431" r="7"></circle>
                    <circle id="Oval-Copy-36" cx="545" cy="365" r="7"></circle>
                    <circle id="Oval-Copy-35" cx="777" cy="187" r="13"></circle>
                </g>
                <g id="Group-3" transform="translate(118.000000, 218.000000)">
                    <g id="Path-16" transform="translate(873.500000, 1177.500000) scale(-1, 1) translate(-873.500000, -1177.500000) translate(0.000000, 458.000000)">
                        <mask id="mask-5" fill="white">
                            <use xlink:href="#path-4"></use>
                        </mask>
                        <use id="Mask" fill="#6A96EC" xlink:href="#path-4"></use>
                        <path d="M1110.98365,327.767925 L986.456699,370.037145 C935.942813,387.183495 907.781133,440.961198 922.459456,492.246643 L939.37107,551.335112 C947.717376,580.496756 942.376499,611.870502 924.851333,636.627942 L888.492413,687.991439 C862.717996,724.402427 864.178453,773.482056 892.072303,808.296042 L917.689939,840.269113 C945.971985,875.567602 940.284034,927.109809 904.985545,955.391854 C897.641136,961.276381 889.337429,965.851015 880.439069,968.914868 L779.357739,1003.71884 C766.303267,1008.21372 754.321006,1015.36316 744.165654,1024.71687 L662.54812,1099.89172 C641.761903,1119.03712 640.431761,1151.4081 659.577166,1172.19432 C662.492142,1175.35911 665.794655,1178.14361 669.406515,1180.48188 L709.293931,1206.30444 C719.555102,1212.94738 728.511382,1221.41535 735.718577,1231.28838 L782.379694,1295.20873 C788.131485,1303.08802 792.699382,1311.76654 795.938223,1320.96851 L818.005601,1383.6648 C826.756489,1408.52721 813.695521,1435.77617 788.833113,1444.52705 C781.171202,1447.22384 772.947767,1447.92042 764.941406,1446.55086 L225.933077,1354.34857 C200.267458,1349.95823 177.326425,1335.73018 161.987424,1314.6894 L-48.6053552,1025.81565 C-62.4268017,1006.85653 -69.1418373,983.641186 -67.5756495,960.231197 L-44.7824752,619.538998 C-43.8096965,604.998763 -39.6707491,590.846832 -32.6553623,578.073849 L120.163083,299.83583 C123.991836,292.864783 128.638549,286.375388 134.004723,280.505207 L406.492585,-17.5755615 C416.709219,-28.7517735 429.33053,-37.4618885 443.404387,-43.0488282 L686.893256,-139.707312 C711.202382,-149.357377 738.324737,-149.099586 762.446046,-138.989204 L942.161823,-63.6618109 C956.52633,-57.6409657 969.285865,-48.3479931 979.423507,-36.5235329 L1154.75913,167.98647 C1190.70623,209.914866 1185.85744,273.04543 1143.92904,308.99253 C1134.24521,317.294912 1123.0624,323.667935 1110.98365,327.767925 Z" fill="#607CB3" mask="url(#mask-5)"></path>
                    </g>
                    <path d="M861.959395,483.266994 C863.636266,483.266994 865.278086,483.747064 866.690803,484.650462 C870.777091,487.263547 871.971359,492.694461 869.358275,496.78075 L852.205094,523.604552 C851.437414,524.805033 850.644164,525.988968 849.825884,527.155547 L822.962016,565.453992 C821.312244,567.805986 819.561883,570.085794 817.715803,572.28707 L796.868864,597.145074 C792.93953,601.830434 788.588721,606.145506 783.871114,610.036063 L741.737847,644.782887 C740.58442,645.734104 739.409807,646.659336 738.214893,647.557883 L700.911335,675.609276 C699.01379,677.036185 697.066031,678.395065 695.07176,679.683331 L651.701553,707.699789 C651.131233,708.068206 650.557176,708.430806 649.97947,708.787531 L615.904206,729.82854 C610.169154,733.369856 603.913188,735.987868 597.365266,737.58676 L594.438099,738.301525 C589.900949,739.40942 585.138368,739.160888 580.741177,737.58676 C576.377001,736.02445 572.673247,733.025512 570.237325,729.081765 L553.81411,702.492645 C553.706896,702.319066 553.59915,702.145815 553.490876,701.972895 L538.819806,678.542472 C535.336041,672.978727 531.312901,667.771534 526.808615,662.996257 L522.640374,658.577243 C518.585435,654.278348 512.937354,651.841649 507.027784,651.841649 C500.882106,651.841649 494.76357,651.026602 488.832196,649.417823 L478.903134,646.724742 C468.92128,644.017343 459.595189,639.305906 451.493137,632.877518 L445.027536,627.747535 C441.156343,624.676025 437.51815,621.321786 434.142862,617.712389 L430.354185,613.660929 C424.476423,607.375487 419.491459,600.311182 415.539538,592.666759 L410.107848,582.159935 C405.591401,573.423519 399.810883,565.401145 392.952962,558.351877 L377.453072,542.419514 C376.612008,541.554983 375.786654,540.675306 374.977415,539.780914 L356.930589,519.835097 C356.510922,519.37127 356.095615,518.903515 355.684725,518.431895 L345.429593,506.661048 C341.356986,501.986507 337.72792,496.943357 334.589269,491.596738 L329.699421,483.266994 L288.878927,369.202563 L274.556356,315.119576 L270,221.326879 L274.556356,177.220516 L311.217262,114.124129 L334.414088,89.493494 C340.5632,82.9643025 347.562745,77.292035 355.224395,72.6293078 L373.287758,61.636307 C379.641597,57.7694874 386.407019,54.6236276 393.458482,52.2571028 L431.505701,39.4881653 C434.027001,38.6419976 436.581054,37.8967478 439.161767,37.2541934 L460.264989,31.999844 C462.603243,31.4176578 464.919691,30.7511465 467.209795,30.0016153 L482.611384,24.960809 C492.652713,21.6743694 503.151424,20 513.716885,20 L523.368071,20 C530.159334,20 536.932932,20.6918141 543.583973,22.064729 L577.104265,28.9840231 C584.003676,30.4082069 590.733277,32.55748 597.18097,35.3960414 L616.057091,43.7061494 C618.234993,44.6649588 620.377977,45.7012012 622.481951,46.8128976 L640.956586,56.5745158 C652.402411,62.6222551 662.565105,70.8348224 670.880511,80.7563184 L679.02034,90.4683245 C686.564047,99.4690698 692.463312,109.728275 696.447729,120.775689 L703.803492,141.170678 C704.081495,141.941483 704.350013,142.715677 704.608986,143.493082 L709.429429,157.963482 C710.508145,161.20166 711.420369,164.492941 712.162519,167.824403 L716.0156,185.120615 C717.60589,192.259316 718.408234,199.550936 718.408234,206.864627 L718.408234,209.840839 C718.408234,216.734827 722.725862,222.890537 729.207862,225.238037 C736.255699,227.790459 742.410677,232.334597 746.925127,238.31846 L747.727622,239.382161 C752.849406,246.171039 757.000473,253.640327 760.061142,261.574672 L760.153224,261.813382 C763.263478,269.876271 764.858693,278.444015 764.858693,287.085997 L764.858693,288.054106 C764.858693,296.752851 763.723691,305.414416 761.482428,313.819469 L759.132463,322.632168 C756.688424,331.797656 752.952727,340.568779 748.037681,348.681844 L743.590031,356.023397 C741.235366,359.910145 737.991222,363.182055 734.124681,365.569757 L733.559159,365.918983 C730.078066,368.06866 727.237102,371.112479 725.332236,374.733337 L723.45816,378.295667 C722.778006,379.588536 722.422599,381.027467 722.422599,382.48833 C722.422599,383.965936 722.597727,385.438335 722.944318,386.874717 L725.989399,399.494468 C727.487602,405.703484 729.577231,411.754681 732.229645,417.565119 L736.129299,426.107788 C738.709147,431.75926 741.810023,437.158029 745.391711,442.234077 L747.727622,445.544583 C752.848962,452.802659 758.964946,459.30496 765.896137,464.860713 L767.384306,466.053567 C773.822109,471.213842 780.967855,475.422495 788.602574,478.55056 L790.688424,479.405165 C796.912416,481.955233 803.573994,483.266994 810.300131,483.266994 L861.959395,483.266994 Z" id="Path" stroke="#EF81A9" fill="url(#linearGradient-6)"></path>
                    <path d="M654.042991,242.077596 C654.577711,240.547287 656.251747,239.740201 657.782057,240.274921 C658.844182,240.646047 659.600698,241.591655 659.729668,242.709336 L664.34083,282.670784 C664.779914,286.475994 665,290.303289 665,294.133748 L665,319.542742 C665,326.399647 664.294748,333.23837 662.895376,339.950962 L658.888355,359.172077 C658.471639,361.171008 657.993796,363.156706 657.455498,365.126379 L654.042991,377.613007 C651.288023,387.693649 645.686385,396.766809 637.908592,403.746432 L627.689073,412.917207 C625.571341,414.817613 623.373464,416.626766 621.10144,418.339727 L613.226439,424.276976 C605.776,429.894132 597.294483,433.992676 588.263821,436.339721 L576.638324,439.361156 C575.089313,439.76374 573.550189,440.203453 572.022283,440.679915 L538.783131,451.045222 C535.914704,451.939713 533.007419,452.70447 530.070127,453.337165 L493.26582,461.264839 C491.60673,461.622208 489.938813,461.937284 488.263687,462.209759 L465.137774,465.971417 C456.231341,467.420136 447.561968,470.067672 439.365729,473.841928 L427.858477,479.140862 C421.707048,481.973511 415.283778,484.173949 408.687583,485.708289 L384.036522,491.442369 C382.797714,491.730528 381.564516,492.042295 380.337602,492.3775 L361.816723,497.437583 C357.139396,498.715474 352.334124,499.467663 347.490032,499.6802 C342.911086,499.881104 338.512855,497.877052 335.659964,494.289836 L333.600611,491.700413 C329.445264,486.475493 327.991425,479.599514 329.676198,473.139775 L333.600611,458.092832 C337.84842,441.805929 348.003437,427.681777 362.089748,418.468585 L422.100855,379.218148 C424.281856,377.791659 426.517786,376.450972 428.803524,375.199159 L638.601775,260.300552 C645.825126,256.344594 651.326355,249.852318 654.042991,242.077596 Z" id="Path-8" fill="#C9A2AF"></path>
                    <g id="Path-10" transform="translate(1330.500000, 1282.500000) scale(-1, 1) translate(-1330.500000, -1282.500000) translate(874.000000, 1035.000000)">
                        <mask id="mask-8" fill="white">
                            <use xlink:href="#path-7"></use>
                        </mask>
                        <use id="Mask" fill="#FBCDDC" xlink:href="#path-7"></use>
                        <path d="M67.7342745,15.5964954 L92.5914555,34.1407836 C99.8097699,39.5258875 107.722444,43.9112395 116.114846,47.1778873 L194.552164,77.7087273 C201.776609,80.5207609 208.649552,84.1633515 215.032518,88.5631097 L288.708994,139.348065 C294.673696,143.459515 301.067511,146.910635 307.777853,149.640656 L377.035801,177.817409 C381.557122,179.656853 385.937695,181.824869 390.14239,184.304069 L445.150212,216.738144 C457.744028,224.163793 471.812887,228.737693 486.365709,230.137635 L554.734088,236.71449 C554.863186,236.726909 554.992308,236.739076 555.121453,236.750993 L605.461206,241.39594 C618.641306,242.612093 631.931711,241.199601 644.561775,237.240369 L649.714061,235.625246 C660.166582,232.348623 665.983796,221.218953 662.707173,210.766433 C662.218441,209.207364 661.538937,207.714659 660.684105,206.322245 L504.302955,-48.4030195 C485.232481,-79.4664274 450.770666,-97.6929124 414.361082,-95.9723131 L256.423127,-88.5086756 C246.266702,-88.0287158 236.242877,-86.0025935 226.69738,-82.5001911 L73.8544848,-26.4195784 C61.3368663,-21.826655 54.9126316,-7.9558201 59.5055551,4.56179839 C61.119551,8.96060564 63.9786869,12.7947014 67.7342745,15.5964954 Z" fill="#FFEDF3" mask="url(#mask-8)"></path>
                        <path d="M33.3414764,114.953928 L49.9181935,130.181075 C56.054654,135.817945 62.8715834,140.665746 70.2104799,144.611762 L119.485802,171.106372 C120.242556,171.513268 120.994035,171.929899 121.740051,172.356163 L208.817176,222.110955 C210.308246,222.962934 211.777121,223.85318 213.222341,224.780809 L264.402811,257.631514 C275.556721,264.790764 288.02254,269.661323 301.07553,271.960026 L379.567052,285.782811 C380.854705,286.009574 382.137787,286.261568 383.415558,286.538649 L523.435992,316.901655 C526.973883,317.668836 530.467505,318.627564 533.901429,319.773606 L621.702013,349.076285 C635.539554,353.694444 648.199151,361.284157 658.792828,371.313063 L675.604686,387.228646 C688.899694,399.814869 706.511614,406.829074 724.81927,406.829074 L730.431486,406.829074 C745.501901,406.829074 760.377419,403.422855 773.946208,396.865006 L800.438881,384.060993 C808.639431,380.097635 815.80291,374.276786 821.360406,367.06073 C826.689426,360.141335 834.928357,356.087449 843.661998,356.087449 L896.209105,356.087449 C919.841864,356.087449 939,375.245586 939,398.878345 L939,405.327803 C939,428.804323 930.740271,451.532453 915.66752,469.531319 L847.54745,550.875725 C825.92815,576.692039 792.767653,589.894319 759.320309,586.001838 L461.47323,551.339476 C445.886365,549.525533 430.945151,544.068884 417.857825,535.410786 L147.462656,356.52718 C147.01954,356.234031 146.578768,355.937355 146.14038,355.63718 L11.9775764,263.772556 C-22.4075362,240.22821 -35.6322984,195.83702 -19.7380105,157.31373 L-5.84669552,123.645085 C-0.690428088,111.147741 13.6206515,105.196623 26.1179954,110.35289 C28.7774914,111.450169 31.2227353,113.007681 33.3414764,114.953928 Z" id="Path-2" fill="#FCAFC8" mask="url(#mask-8)"></path>
                    </g>
                    <path d="M706.059417,161.464363 C711.689544,185.972736 713.317749,203.976961 710.944033,215.477036 C707.311174,233.077351 701.007144,220.65211 696.241105,232.340781 C693.127666,239.976465 689.37822,242.818103 687.907302,249.844036 C683.287263,271.911947 679.09173,292.776691 675.320704,312.438267 L675.320724,312.43827 C674.232127,318.114054 668.748513,321.832704 663.07273,320.744107 C660.738272,320.296366 658.625814,319.067172 657.083053,317.258843 C653.757198,313.360479 651.452981,267.76519 645.285788,258.983132 C637.294043,247.602921 619.477284,234.157964 591.835509,218.648262 C588.219945,216.619582 584.481721,214.817707 580.642482,213.253069 L525.174059,190.647561 C513.190974,185.763994 500.37397,183.25256 487.433972,183.25256 L434.917618,183.25256 C423.962704,183.25256 413.082231,185.052631 402.711025,188.580836 L325.027486,215.008178 C324.108725,215.320734 323.194562,215.646647 322.285289,215.985815 L277.006865,232.875099 C268.951829,235.879704 259.986218,231.785521 256.981613,223.730485 C256.332445,221.990135 256,220.147647 256,218.290166 L256,213.276606 C256,201.789767 258.315565,190.420798 262.808336,179.84902 L268.602089,166.215947 C269.278364,164.624629 269.995797,163.051118 270.753665,161.497002 L282.925567,136.53679 C286.466229,129.276162 290.873598,122.471293 296.05132,116.270954 L314.138565,94.6114196 C315.792295,92.6310735 317.368764,90.587469 318.864434,88.4851938 L324.36378,80.7554568 C329.472165,73.5752437 335.99608,67.5165441 343.533916,62.9523268 L370.515676,46.6146666 C378.807304,41.5940228 387.784853,37.8056036 397.166614,35.3682862 L428.012299,27.3547886 C432.661165,26.1470453 437.216974,24.6059314 441.644347,22.7434155 L474.098437,9.09056402 C477.869538,7.5041298 481.734441,6.15061574 485.671355,5.03765356 L493.394471,2.85433506 C502.32441,0.329848987 511.763594,0.215031424 520.752296,2.5215564 L524.840387,3.57057144 C532.961092,5.65436582 541.311612,6.70867011 549.695408,6.70867011 L554.576578,6.70867011 C564.588416,6.70867011 574.319286,10.0191925 582.253965,16.1247449 L586.867825,19.6750037 C591.938204,23.5765442 597.371296,26.9825012 603.09239,29.8460401 L619.687728,38.1523881 C620.874767,38.7465286 622.073519,39.3169746 623.283271,39.8633868 L640.394984,47.5922867 C651.38278,52.5551782 661.129438,59.8994045 668.929213,69.0931776 L675.916656,77.3294363 C679.151246,81.1421211 682.095335,85.1920266 684.724153,89.4450787 L695.325973,106.597309 C700.68321,115.264554 703.520838,125.252492 703.520838,135.441757 L703.520838,139.075272 C703.520838,146.610108 704.372435,154.120805 706.059417,161.464363 Z" id="Path-4" fill="#584A38"></path>
                    <g id="Path-29" transform="translate(118.000000, 10.000000)">
                        <g>
                            <mask id="mask-10" fill="white">
                                <use xlink:href="#path-9"></use>
                            </mask>
                            <use id="Mask" fill="#2E2B22" transform="translate(300.000000, 244.500000) scale(-1, 1) translate(-300.000000, -244.500000) " xlink:href="#path-9"></use>
                        </g>
                    </g>
                    <path d="M757.863999,381.867427 C753.892208,383.89512 749.34814,384.509252 744.980585,383.608623 L744.132372,383.433713 C739.251902,382.427317 734.936283,379.603786 732.059466,375.53491 L731.610793,374.900322 C728.355987,370.296832 724.262771,366.347972 719.545437,363.260476 L710.80958,357.542856 C706.007567,354.399938 702.622214,349.506546 701.374434,343.904734 L699.882787,337.208098 C699.579908,335.848347 699.248649,334.495074 698.889227,333.149165 L693.385687,312.54037 C691.138196,304.124318 690,295.450678 690,286.7397 L690,278.60581 C690,270.750689 692.316718,263.070028 696.660224,256.525039 L700.354859,250.957798 C702.330499,247.980816 704.464266,245.111854 706.74698,242.363255 L714.833536,232.626293 C718.44581,228.276781 723.1392,224.954577 728.442116,222.993493 L728.879364,222.831794 C733.810591,221.008165 739.240914,221.065733 744.132372,222.993493 C749.127071,224.961942 753.59312,228.0695 757.174813,232.068661 L757.863999,232.838176 C761.815188,237.2499 764,242.964177 764,248.886608" id="Don't-flatten" stroke="#EDA5BF" stroke-width="5" transform="translate(727.000000, 302.500000) scale(-1, 1) translate(-727.000000, -302.500000) "></path>
                    <path d="M722.707962,269.476429 L721.438506,270.379073 C718.169083,272.703789 714.256955,273.952859 710.245293,273.952859 C706.839282,273.952859 704.078164,276.713976 704.078164,280.119987 L704.078164,289.383943 C704.078164,293.461303 701.429943,297.066174 697.539082,298.285217 L697.264369,298.371288 C693.536967,299.539118 691,302.992545 691,306.898612 L691,313.463249 L691,321.5307 C691,326.213984 694.323002,330.238658 698.92164,331.125042 L702.225924,331.761941 C706.409047,332.568234 710.521153,333.707076 714.523082,335.16762 L715.757229,335.618035 C718.931522,336.776525 721.956847,338.308248 724.769526,340.180965 L725.259259,340.507035 C727.700807,342.132648 730.568533,343 733.501752,343 C735.474882,343 737.074421,341.400462 737.074421,339.427331 C737.074421,339.155079 737.043301,338.883719 736.981667,338.618535 L734.336813,327.238821 C733.676041,324.395791 732.891111,321.583054 731.98428,318.80869 L730.60566,314.590936 C729.576048,311.440937 729.779271,308.017689 731.174341,305.011633 C732.573379,301.997027 732.8254,298.575779 731.883198,295.38871 L731.174341,292.990947 C729.734615,288.120963 729.003503,283.06907 729.003503,277.990728 L729.003503,272.724782 C729.003503,270.523481 727.218996,268.738974 725.017696,268.738974 C724.189884,268.738974 723.382612,268.996722 722.707962,269.476429 Z" id="Don't-flatten" stroke="#EDA5BF" stroke-width="5" transform="translate(714.500000, 304.000000) scale(-1, 1) translate(-714.500000, -304.000000) "></path>
                    <path d="M519.329917,403.77158 L519.329917,406.777701 C519.329917,411.946892 518.92911,417.108302 518.1311,422.215524 L515.886585,436.580288 C514.634367,444.594413 514.448048,452.738997 515.332479,460.802001 L515.476838,462.11806 C516.266581,469.31783 517.836194,476.410491 520.158049,483.271203 L521.083699,486.006348 C523.983099,494.573613 528.986651,502.276027 535.635676,508.407505 L549.757642,521.430245 C552.601241,524.052504 555.290298,526.837545 557.811255,529.771327 L582.918681,558.990279 C583.342003,559.482923 583.760515,559.97968 584.174158,560.480479 L614.961562,597.754925 C622.571059,606.967776 631.770136,614.742241 642.122511,620.709602 L675.309573,639.839434 C677.44698,641.071487 679.629248,642.224021 681.851898,643.294671 L702,653 L702,653" id="Dont-flatten" stroke="#EF81A9" transform="translate(608.000000, 523.000000) scale(-1, 1) translate(-608.000000, -523.000000) "></path>
                    <path d="M671,518 L657.104897,548.593287 C656.25262,550.469772 655.458557,552.372156 654.723847,554.297713 L648.653922,570.206001 C647.633644,572.879983 646.499041,575.508933 645.253248,578.085588 L636.390054,596.417195 C635.089909,599.106266 633.910895,601.852237 632.85656,604.646849 L625.840092,623.244641 C624.272984,627.398406 622.984227,631.651919 621.982375,635.976949 L616.783804,658.419376 C616.348115,660.30026 615.858047,662.168132 615.314216,664.020643 L608.032167,688.826255 C608.010783,688.899098 607.989482,688.971966 607.968263,689.044858 L601.119638,712.572183 C600.668451,714.12216 600.179799,715.660984 599.65411,717.187303 L592.454709,738.090508 L590.177297,738.464548 C588.024668,738.818094 585.823641,738.746718 583.69844,738.25445 L583.535128,738.216621 C581.510024,737.747538 579.568096,736.973012 577.776032,735.91964 L577.254755,735.613235 C575.806361,734.761871 574.47913,733.719458 573.308795,732.514062 L571.545307,730.697743 C563.730837,718.508602 558.268751,709.850926 555.159049,704.724715 C552.489179,700.323547 548.592347,693.910789 543.468553,685.48644 C541.692505,682.56633 539.767921,679.739193 537.702376,677.01616 C531.44963,668.773088 527.345797,663.514799 525.390876,661.241294 C523.126206,658.60756 519.66258,655.80482 515,652.833075 C528.825376,646.186892 539.044575,641.018379 545.657598,637.327535 C550.349159,634.709094 560.216155,629.482204 574.215728,620.676831 C576.695534,619.117097 580.167233,616.646246 584.630826,613.264277 C589.583312,609.511885 594.175289,605.306077 598.347182,600.701419 L604.916069,593.451119 C606.07546,592.17146 607.201512,590.861986 608.293091,589.524014 C622.762318,571.788774 631.477573,561.192385 634.438857,557.734848 C638.963184,552.452332 646.469202,542.427749 658.040764,530.246663 C658.040764,530.246663 660.816915,527.109027 665.63602,522.750026 C666.756522,521.736503 668.544515,520.153161 671,518 Z" id="Path-9" fill="#C9A2AF"></path>
                </g>
                <g id="Path-11" transform="translate(176.500000, 1547.000000) scale(-1, 1) translate(-176.500000, -1547.000000) translate(0.000000, 1235.000000)">
                    <mask id="mask-12" fill="white">
                        <use xlink:href="#path-11"></use>
                    </mask>
                    <use id="Mask" fill="#FBCDDC" xlink:href="#path-11"></use>
                    <path d="M145.814537,607.342067 L152.872169,581.803343 C154.042168,577.569587 155.489844,573.417517 157.205791,569.374113 L167.931581,544.100191 C173.175509,531.74356 175.878013,518.457645 175.878013,505.034341 L175.878013,486.146062 C175.878013,472.092025 178.840395,458.195811 184.571973,445.363626 L210.135779,388.129922 C214.653783,378.014757 217.459581,367.219153 218.438538,356.184183 L225.422274,277.462289 C226.284608,267.741902 231.828238,259.051021 240.278998,254.171044 L251.577602,247.646551 C253.032358,246.806487 254.508052,246.003214 256.003278,245.237496 L273.687336,236.181345 C282.519784,231.658176 290.007625,224.892077 295.399826,216.56169 L296.416435,214.991136 C301.718144,206.800551 305.792648,197.878166 308.51043,188.507602 C313.427009,171.555864 317.256866,153.182211 320,133.386643 C325.388843,94.498567 308.214342,68.1601686 309.5,63.4214773 C309.980279,61.6512607 323.714256,73.3746197 328.542726,70.2093823 C330.172946,69.1407136 334.147518,72.2208874 340.466443,79.4499039 C349.979096,90.3326308 361.73789,99.0238224 374.932728,104.924719 L482,152.80654 L270.309264,557.810254 C259.607695,578.284343 242.147298,594.421606 220.895029,603.479918 L167.441935,626.263121 C159.338497,629.717034 149.969412,625.947848 146.5155,617.844409 C145.100166,614.523805 144.853048,610.821309 145.814537,607.342067 Z" fill="#FFEDF3" mask="url(#mask-12)"></path>
                    <path d="M178.185675,57.3050543 L157.221381,176.824575 C155.902679,184.342624 153.727563,191.684975 150.738522,198.708199 L141.918272,219.432772 C136.648122,231.815822 133.931682,245.135238 133.931682,258.593113 L133.931682,277.359599 C133.931682,291.449466 130.95418,305.380292 125.194316,318.239076 L99.5985482,375.381128 C95.0586571,385.516347 92.2387531,396.337008 91.2546082,407.398867 L84.6042345,482.149538 C83.4635417,494.971006 79.8581972,507.451666 73.9861256,518.90636 L51.248364,563.26108 C48.4592326,568.701859 41.787572,570.851445 36.3467928,568.062313 C33.6797444,566.695092 31.6810077,564.304925 30.8073396,561.43802 L27.1688752,549.498552 C26.0064368,545.68406 21.9718371,543.534145 18.1573445,544.696583 C16.6095839,545.168252 15.2651064,546.146124 14.339597,547.473327 C8.72191552,555.529216 4.63252681,564.548904 2.27518477,574.082982 L-5.35341302,604.936225 C-8.55219435,617.873435 -9.13278798,631.319527 -7.06107442,644.484313 C-1.65309768,678.849517 0.68601517,697.37315 -0.0437358794,700.055213 C-0.525285212,701.825056 -14.2955883,690.104167 -19.1368296,693.268737 C-20.2274672,693.981654 -21.5531899,693.381995 -23.1139976,691.469761 C-32.6513251,679.785041 -44.7082714,670.409098 -58.3822175,664.043842 L-173,610.688976 L-8.89031953,124.704301 C-3.10121555,107.560792 7.23095798,92.3092746 21.0050346,80.5752026 L100.478132,12.8724392 C120.47836,-4.16566206 150.503858,-1.76438417 167.541959,18.2358434 C176.73194,29.0235305 180.634036,43.3467069 178.185675,57.3050543 Z" id="Path-11-Copy" fill="#FCAFC8" mask="url(#mask-12)"></path>
                </g>
                <path d="M314.594248,1354.01879 L314.594248,1360.84339 C314.594248,1368.40644 313.73626,1375.94508 312.036742,1383.31471 L309.572225,1394.0016 C307.357456,1403.60551 303.735057,1412.82924 298.822505,1421.37366 L286.872471,1442.1584 C283.153324,1448.62712 278.721855,1454.65927 273.660818,1460.14218 L257.875719,1477.2431 C252.941019,1482.58915 247.43764,1487.38071 241.463315,1491.53268 L236.663433,1494.86846 C227.546387,1501.20454 217.359469,1505.84108 206.593639,1508.55462 L186.565002,1513.60286 C178.490113,1515.63814 170.010074,1512.35453 165.411587,1505.4119 C161.049167,1498.82567 162.36617,1490.00833 168.462756,1484.98431 L183.310864,1472.74843 C188.755005,1468.26207 193.709132,1463.21223 198.090499,1457.68324 L214.957949,1436.39766 C220.214913,1429.76373 224.608345,1422.4892 228.03286,1414.74857 L242.657137,1381.69246 C245.442133,1375.39737 247.569695,1368.83154 249.005978,1362.09942 L254.269974,1337.42612 C255.360399,1332.3151 255.910149,1327.10356 255.910149,1321.87751 C255.910149,1316.76906 257.5312,1311.79237 260.53992,1307.66394 L261.765229,1305.98262 C265.590836,1300.7333 270.820216,1296.67018 276.852112,1294.26043 L280.934203,1292.62963 C286.259919,1290.502 291.758792,1288.83646 297.370007,1287.65142 L302.387565,1286.59176 C310.469194,1284.88499 318.211115,1281.84741 325.297124,1277.60309 L328.750485,1275.53463 C333.15029,1272.89927 335.56129,1267.89967 334.883945,1262.81591 C334.019297,1256.32637 329.416473,1250.95347 323.13652,1249.10307 C320.685665,1248.38093 317.838241,1247.67991 314.594248,1247 C298.5,1243.62682 292.336789,1244.41755 287.286984,1243.62682 C282.237179,1242.83608 273.93921,1238.58537 265,1237.78369 C259.860286,1237.32275 254.652196,1237.80885 249.375728,1239.24199 C247.066158,1239.86929 244.734814,1240.41348 242.386198,1240.8735 L229.871741,1243.32471 C228.843545,1243.5261 227.818577,1243.74364 226.797217,1243.97725 L210.762172,1247.64479 C203.542454,1249.29609 196.528524,1251.74432 189.84943,1254.94445 L171.026188,1263.96315 C166.541709,1266.11178 162.223741,1268.59191 158.10822,1271.38291 L154.69012,1273.70094 C151.450558,1275.89789 148.342781,1278.28315 145.382833,1280.84441 L140.087563,1285.42644 C133.631224,1291.01315 128.047153,1297.53447 123.520815,1304.7738 L116.197952,1316.48583 C114.135235,1319.7849 111.706481,1322.84042 108.957877,1325.5943 C106.218161,1328.33927 103.056512,1330.62775 99.5930381,1332.37282 L98.7935007,1332.77566 C94.8578025,1334.75866 90.4348741,1335.56804 86.0519833,1335.10733 L83.8826113,1334.87929 C77.9753115,1334.25833 72.0211237,1334.22233 66.1067463,1334.7718 L64.9497353,1334.87929 C58.7698155,1335.45343 53.4176607,1339.40648 51.0516011,1345.14432 L50.6172445,1346.19766 C48.3101166,1351.79259 48.4305403,1358.09445 50.9497353,1363.59715 C53.5055544,1369.17984 57.8962438,1373.71885 63.3909857,1376.45865 L75.7776031,1382.63491 C83.4805013,1386.47575 91.7376605,1389.08589 100.248646,1390.37036 L104.35058,1390.98941 C110.129127,1391.8615 116.019452,1391.65158 121.721258,1390.37036 L127.559762,1389.05841 C129.418568,1388.64073 131.265058,1388.17001 133.096972,1387.64683" id="Dont-Flatten" stroke="#F18FB2" transform="translate(191.500000, 1377.307716) scale(-1, 1) translate(-191.500000, -1377.307716) "></path>
                <path d="M134.082884,1374.01468 L133.027139,1381.73247 C132.45347,1385.92616 131.614118,1390.0792 130.514148,1394.16652 L122.096866,1425.44384 C121.051339,1429.32885 119.772311,1433.14723 118.266755,1436.87815 L114.772811,1445.5365 C111.048909,1454.7647 104.281409,1462.44209 95.5934283,1467.29453 L91.2475578,1469.7218 C84.4217114,1473.5342 77.1723203,1476.53295 69.6479195,1478.65661 L33,1489 L33,1489" id="Dont-flatten" transform="translate(84.500000, 1424.500000) scale(-1, 1) translate(-84.500000, -1424.500000) "></path>
                <path d="M249.768923,1357.20033 L251.055748,1357.81254 C254.588616,1359.49331 257.232357,1362.60681 258.318173,1366.36542 L259.135491,1369.19461 C260.348742,1373.39434 260.233449,1377.86652 258.805417,1381.99816 L258.549564,1382.7384 C257.507229,1385.75412 254.217522,1387.35387 251.201798,1386.31154 C251.152881,1386.29463 251.104193,1386.27706 251.055748,1386.25885 L249.657239,1385.733 C247.014984,1384.73949 244.072971,1384.93106 241.581874,1386.25885 C239.16988,1387.54447 237.663086,1390.05508 237.663086,1392.78831 L237.663086,1396.14182 C237.663086,1399.91565 239.058894,1403.55612 241.581874,1406.36261 C244.14582,1409.21466 245.883682,1412.71176 246.608523,1416.47775 L247.752095,1422.41929 C248.802677,1427.8777 249.331543,1433.42369 249.331543,1438.98228 C249.331543,1444.21551 246.762077,1449.11519 242.457197,1452.09088 L235.504741,1456.89666 C228.858036,1461.49109 221.125994,1464.26867 213.075044,1464.95405 L205.532223,1465.59618 C202.388511,1465.86381 199.222345,1465.64724 196.144353,1464.95405 C193.100783,1464.26861 190.288562,1462.80136 187.985254,1460.69709 L184.831386,1457.81577 C181.912141,1455.1488 179.153648,1452.31104 176.570435,1449.31742 L174.077539,1446.42847 C169.843152,1441.52136 166.165382,1436.16028 163.111514,1430.44331 L159.903873,1424.43848 C158.663796,1422.11701 157.515853,1419.74748 156.462723,1417.33544 L148.041702,1398.04831 C147.163878,1396.03778 146.710769,1393.86761 146.710769,1391.6738 C146.710769,1389.45961 146.88095,1387.2487 147.219809,1385.06059 L148.870519,1374.40149 C150.216249,1365.71174 155.895647,1358.30596 163.939045,1354.75257 L176.570791,1349.17214 C176.98585,1348.98878 177.399657,1348.80259 177.812182,1348.61359 L184.72055,1345.44855 C189.680325,1343.17624 195.07172,1342 200.527244,1342 L211.807197,1342 C217.330364,1342 222.1125,1345.83606 223.310694,1351.22769 L224.027019,1354.45101 C224.806672,1357.9593 227.918362,1360.45538 231.512234,1360.45538 L232.936404,1360.45538 C236.017161,1360.45538 239.027687,1359.53509 241.581874,1357.81254 C244.010483,1356.17467 247.123733,1355.94187 249.768923,1357.20033 Z" id="Path-15" fill="#000000"></path>
                <path d="M308,1476 C246.42025,1476 196.5,1426.07975 196.5,1364.5 C196.5,1302.92025 246.42025,1253 308,1253 C369.57975,1253 419.5,1302.92025 419.5,1364.5 C419.5,1426.07975 369.57975,1476 308,1476 Z" id="Oval-Copy-16" stroke="#3D3D3D" stroke-width="19"></path>
                <path d="M314.5,1482 C249.606542,1482 197,1429.39346 197,1364.5 C197,1299.60654 249.606542,1247 314.5,1247 C379.393458,1247 432,1299.60654 432,1364.5 C432,1429.39346 379.393458,1482 314.5,1482 Z" id="Oval" stroke="#000000" stroke-width="19"></path>
            </g>
            <path d="M1605.88501,1615.43667 L1605.91821,1615.46983 C1613.41464,1622.95663 1618.58803,1632.45009 1620.81592,1642.80795 L1623.68283,1656.13676 C1625.0196,1662.35166 1621.66321,1668.62121 1615.75,1670.95485 C1609.59733,1673.383 1602.58286,1671.69953 1598.2024,1666.74344 L1588.90203,1656.22094 C1582.8728,1649.39944 1577.92893,1641.69096 1574.24388,1633.366 L1570.8984,1625.80817 C1569.42284,1622.4747 1567.7661,1619.22441 1565.93561,1616.07186 L1565.71051,1615.68419 C1564.52723,1613.6463 1565.22003,1611.03503 1567.25792,1609.85175 C1567.65465,1609.6214 1568.08592,1609.45653 1568.53514,1609.3635 L1578.58563,1607.28207 C1588.47786,1605.23342 1598.73713,1608.29797 1605.88501,1615.43667 Z" id="Path-24" fill="#292929"></path>
            <g id="Path-31" transform="translate(2456.000000, 1940.901250)">
                <mask id="mask-15" fill="white">
                    <use xlink:href="#path-14"></use>
                </mask>
                <use id="Mask" fill="url(#radialGradient-13)" xlink:href="#path-14"></use>
                <path d="M337.609171,19.1975 C359.396626,79.227593 282.708593,91.0823671 314.72226,153.917116 C346.735927,216.751864 434.455909,187.012656 457.084543,253.6975 C479.713176,320.382344 362.849575,328.665775 402.766043,413.375378 C442.682511,498.084982 485.970985,527.76796 598.021848,552.790678 C710.072711,577.813396 728.457924,616.410364 849.766043,513.1975 C971.074162,409.984637 991.927551,369.761899 1001.26604,209.6975 C1010.60453,49.6331012 1132.34831,-14.5077981 886.519758,-116.771612 C640.691205,-219.035426 279.611131,-132.410171 216.477894,-116.771612 C153.344657,-101.133054 315.821716,-40.8325929 337.609171,19.1975 Z" mask="url(#mask-15)"></path>
            </g>
            <g id="Rectangle" transform="translate(2109.000000, 2166.000000)" stroke="#000000">
                <g id="Mask">
                    <path d="M1,177 L1259,168" id="Path-19" stroke-width="17" fill="#232B38"></path>
                    <path d="M247,273 C385.855771,91 527.426568,0 671.712391,0 C815.998214,0 962.094083,91 1110,273" id="Path-20" stroke-width="14"></path>
                    <path d="M247,313 C385.855771,131 527.426568,40 671.712391,40 C815.998214,40 962.094083,131 1110,313" id="Path-20-Copy" stroke-width="14"></path>
                    <polyline id="Path-21" stroke-width="6" points="283 267.016954 283 231.524273 319.358105 231.524273 319.358105 184.666162 364.695958 184.666162 358.267424 142.616936 408.343248 142.616936 408.343248 100.330591 464.382153 100.330591 477.594899 59.0366352 518.352861 72.1001739 534.485672 28.8565674 578.760886 49.4025498 605.612312 8.56966015 648.012537 39.5017718 688.533381 0 714.976437 39.5017718 760.568973 8.56966015 770.848481 49.4025498 814.965616 28.8565674 814.965616 72.1001739 855.091263 49.4025498 863.768028 90.6438122 903.779508 79.2796313 903.779508 116.683068 947.839559 107.99307 947.839559 150.564837 993.423313 150.564837 993.423313 184.666162 1030.43569 184.666162 1030.43569 219.268073 1064.21623 219.268073 1064.21623 255.200489 1097 255.200489 1097 290"></polyline>
                </g>
            </g>
            <g id="building" transform="translate(3243.000000, 2160.000000)">
                <rect id="Rectangle" fill="#E8CCF7" x="0" y="0" width="156" height="275"></rect>
                <rect id="Rectangle" fill="#D16CD5" x="16" y="27" width="129" height="17"></rect>
                <rect id="Rectangle-Copy-2" fill="#D16CD5" x="16" y="49" width="129" height="17"></rect>
                <rect id="Rectangle-Copy-3" fill="#D16CD5" x="16" y="72" width="129" height="17"></rect>
                <polygon id="Rectangle-Copy" fill="#29278E" points="156 0 193.289539 10.4239592 193.289539 275 156 275"></polygon>
            </g>
            <g id="building-copy" transform="translate(2100.000000, 2138.000000)">
                <rect id="Rectangle" fill="#E8CCF7" x="48" y="0" width="170" height="297"></rect>
                <rect id="Rectangle" fill="#D16CD5" x="66" y="27" width="20" height="17"></rect>
                <rect id="Rectangle-Copy-4" fill="#D16CD5" x="103" y="27" width="20" height="17"></rect>
                <rect id="Rectangle-Copy-5" fill="#D16CD5" x="134" y="27" width="20" height="17"></rect>
                <rect id="Rectangle-Copy-6" fill="#D16CD5" x="134" y="61" width="20" height="17"></rect>
                <rect id="Rectangle-Copy-7" fill="#D16CD5" x="103" y="61" width="20" height="17"></rect>
                <rect id="Rectangle-Copy-8" fill="#D16CD5" x="66" y="61" width="20" height="17"></rect>
                <polygon id="Rectangle-Copy" fill="#29278E" transform="translate(24.811565, 148.500000) scale(-1, 1) translate(-24.811565, -148.500000) " points="0.623129368 0 49 11.2578759 49 297 0.623129368 297"></polygon>
            </g>
            <g id="Group-5" transform="translate(3105.500000, 2076.500000) scale(-1, 1) translate(-3105.500000, -2076.500000) translate(2959.000000, 1980.000000)">
                <path d="M0,0 L289.045856,31.8921544 C290.143762,32.013293 290.935589,33.0015245 290.814451,34.0994313 C290.767321,34.5265756 290.583864,34.9271803 290.291253,35.2419061 L231.091752,98.9155564 L231.091752,98.9155564 L228.774055,158.337704 L197.820167,137.05756 L138.551752,190.724722 C137.323583,191.836822 135.42642,191.742729 134.31432,190.514559 C134.232502,190.424202 134.156268,190.328942 134.08604,190.229309 L0,0 L0,0 Z" id="Path-12" fill="url(#linearGradient-16)"></path>
                <path d="M2,0 L231,99.0914409 L231,163 L196.841209,138.251591 L201.923055,133.188813 C203.879344,131.239865 203.885294,128.074046 201.936347,126.117757 C201.671331,125.851743 201.377193,125.616429 201.059495,125.416266 L2,0 L2,0 Z" id="Path-23" fill="#387AEC"></path>
            </g>
            <g id="Group-7" transform="translate(2764.000000, 85.000000)">
                <g id="Group-6" transform="translate(53.000000, 0.000000)">
                    <g id="Path-22" transform="translate(214.000000, 214.500000) rotate(10.000000) translate(-214.000000, -214.500000) translate(29.894378, 29.964225)">
                        <mask id="mask-19" fill="white">
                            <use xlink:href="#path-18"></use>
                        </mask>
                        <use id="Mask" fill="url(#linearGradient-17)" xlink:href="#path-18"></use>
                        <path d="M-15.8283146,60.3670156 C-5.2152589,46.7706894 13.4235503,37.7471806 47.8000947,42.6666928 C82.1766391,47.586205 76.8669827,77.607116 104.64198,77.607116 C132.416976,77.607116 120.049639,28.8321206 159.500629,42.6666928 C198.951618,56.501265 186.556623,119.450066 223.962314,119.450066 C261.368006,119.450066 285.331347,48.4455883 306.664549,42.6666928 C327.997752,36.8877972 323.176101,55.4134253 342.891221,87.2337247 C362.60634,119.054024 386.766744,122.627022 374.256864,151.761021 C361.746984,180.895021 342.085938,200.375717 292.025138,205.69469 C241.964338,211.013663 212.620862,196.112592 168.277307,173.646402 C123.933752,151.180212 142.681245,125.853733 115.908585,116.467115 C89.1359251,107.080497 48.3858981,122.939635 27.1904248,124.180691 C5.99495146,125.421748 1.00273649,149.147746 -15.8283146,124.180691 C-32.6593657,99.2136362 -26.4413703,73.9633417 -15.8283146,60.3670156 Z" fill-opacity="0.5" fill="url(#linearGradient-20)" mask="url(#mask-19)"></path>
                        <path d="M-15.8283146,332.237544 C-5.2152589,318.641218 13.4235503,309.617709 47.8000947,314.537221 C82.1766391,319.456733 76.8669827,349.477644 104.64198,349.477644 C132.416976,349.477644 120.049639,300.702649 159.500629,314.537221 C198.951618,328.371793 186.556623,391.320594 223.962314,391.320594 C261.368006,391.320594 285.331347,320.316116 306.664549,314.537221 C327.997752,308.758325 323.176101,327.283953 342.891221,359.104253 C362.60634,390.924552 386.766744,394.49755 374.256864,423.631549 C361.746984,452.765549 342.085938,472.246245 292.025138,477.565218 C241.964338,482.884191 212.620862,467.98312 168.277307,445.51693 C123.933752,423.050741 142.681245,397.724261 115.908585,388.337643 C89.1359251,378.951025 48.3858981,394.810163 27.1904248,396.051219 C5.99495146,397.292276 1.00273649,421.018275 -15.8283146,396.051219 C-32.6593657,371.084164 -26.4413703,345.83387 -15.8283146,332.237544 Z" id="Path-22-Copy" fill-opacity="0.5" fill="url(#linearGradient-20)" mask="url(#mask-19)"></path>
                        <path d="M-233.109405,165.60722 C-222.496349,152.010894 -203.85754,142.987385 -169.480996,147.906897 C-135.104451,152.826409 -140.414108,182.84732 -112.639111,182.84732 C-84.8641138,182.84732 -97.2314509,134.072325 -57.7804616,147.906897 C-18.3294722,161.741469 -30.7244676,224.690271 6.6812238,224.690271 C44.0869152,224.690271 68.0502567,153.685793 89.3834589,147.906897 C110.716661,142.128002 105.895011,160.65363 125.61013,192.473929 C145.32525,224.294229 169.485654,227.867226 156.975774,257.001226 C144.465894,286.135225 124.804848,305.615921 74.7440478,310.934894 C24.6832475,316.253867 -4.66022782,301.352796 -49.0037831,278.886607 C-93.3473383,256.420417 -74.5998449,231.093937 -101.372505,221.707319 C-128.145165,212.320701 -168.895192,228.179839 -190.090666,229.420896 C-211.286139,230.661952 -216.278354,254.387951 -233.109405,229.420896 C-249.940456,204.453841 -243.722461,179.203546 -233.109405,165.60722 Z" id="Path-22-Copy-2" fill-opacity="0.5" fill="url(#linearGradient-20)" mask="url(#mask-19)"></path>
                        <path d="M194.890595,240.152365 C205.503651,226.556039 224.14246,217.53253 258.519004,222.452042 C292.895549,227.371554 287.585892,257.392465 315.360889,257.392465 C343.135886,257.392465 330.768549,208.61747 370.219538,222.452042 C409.670528,236.286614 397.275532,299.235415 434.681224,299.235415 C472.086915,299.235415 496.050257,228.230938 517.383459,222.452042 C538.716661,216.673146 533.895011,235.198775 553.61013,267.019074 C573.32525,298.839373 597.485654,302.412371 584.975774,331.546371 C572.465894,360.68037 552.804848,380.161066 502.744048,385.480039 C452.683247,390.799012 423.339772,375.897941 378.996217,353.431752 C334.652662,330.965562 353.400155,305.639082 326.627495,296.252464 C299.854835,286.865846 259.104808,302.724984 237.909334,303.966041 C216.713861,305.207097 211.721646,328.933096 194.890595,303.966041 C178.059544,278.998985 184.277539,253.748691 194.890595,240.152365 Z" id="Path-22-Copy-3" fill-opacity="0.5" fill="url(#linearGradient-20)" mask="url(#mask-19)"></path>
                    </g>
                    <ellipse id="Oval" fill-opacity="0.5" fill="url(#linearGradient-21)" transform="translate(115.450477, 145.505880) rotate(10.000000) translate(-115.450477, -145.505880) " cx="115.450477" cy="145.50588" rx="13.8544695" ry="13.8848854"></ellipse>
                    <ellipse id="Oval-Copy" fill-opacity="0.5" fill="url(#linearGradient-21)" transform="translate(280.760619, 93.832736) rotate(10.000000) translate(-280.760619, -93.832736) " cx="280.760619" cy="93.8327356" rx="13.8544695" ry="13.8848854"></ellipse>
                    <ellipse id="Oval-Copy-2" fill-opacity="0.5" fill="url(#linearGradient-21)" transform="translate(154.959226, 266.031301) rotate(10.000000) translate(-154.959226, -266.031301) " cx="154.959226" cy="266.031301" rx="13.8544695" ry="13.8848854"></ellipse>
                    <ellipse id="Oval-Copy-3" fill-opacity="0.5" fill="url(#linearGradient-21)" transform="translate(227.636891, 172.754681) rotate(10.000000) translate(-227.636891, -172.754681) " cx="227.636891" cy="172.754681" rx="13.8544695" ry="13.8848854"></ellipse>
                    <ellipse id="Oval-Copy-4" fill="url(#linearGradient-21)" transform="translate(250.926995, 297.092617) rotate(10.000000) translate(-250.926995, -297.092617) " cx="250.926995" cy="297.092617" rx="13.8544695" ry="13.8848854"></ellipse>
                    <ellipse id="Oval-Copy-5" fill="url(#linearGradient-21)" transform="translate(342.355552, 185.608847) rotate(10.000000) translate(-342.355552, -185.608847) " cx="342.355552" cy="185.608847" rx="13.8544695" ry="13.8848854"></ellipse>
                    <ellipse id="Oval-Copy-6" fill="url(#linearGradient-21)" transform="translate(220.611011, 372.624489) rotate(10.000000) translate(-220.611011, -372.624489) " cx="220.611011" cy="372.624489" rx="13.8544695" ry="13.8848854"></ellipse>
                </g>
                <path d="M88.7203441,176.94908 L88.3346085,177.077292 L88.3346085,177.077292 C77.9022433,180.515034 71.6577337,185.200128 70.623765,191.08861 C66.3904564,215.197428 151.103175,250.34882 259.834917,269.601441 C368.566659,288.854063 460.142926,284.917338 464.376235,260.80852 C465.367697,255.162117 461.480296,248.910007 453.548125,242.398295 C454.410439,232.580535 454.484354,222.84569 453.822271,213.261725 L453.341778,213.075325 C506.197507,233.673808 537.890279,255.630882 534.791823,273.276679 C529.019129,306.15234 404.668811,311.61381 257.047614,285.475215 C109.426416,259.336619 -5.56451627,211.496111 0.208177287,178.620451 C3.31892341,160.904659 40.8626706,151.1495 97.9258414,150.009978 L98.3003679,150.000195 C94.4680967,158.616927 91.2531526,167.615062 88.7203441,176.94908 Z" id="Ring-2" fill="url(#linearGradient-22)" style="mix-blend-mode: multiply;"></path>
                <path d="M88.7653221,193.924261 C88.4573554,195.667777 88.2800726,197.310049 88.22859,198.856658 C77.8612077,202.263558 71.6543316,206.909566 70.623765,212.743993 C66.3904564,236.71035 151.103174,271.65403 259.834917,290.792887 C368.566659,309.931743 460.142926,306.018281 464.376235,282.051923 C465.357532,276.496428 461.559488,270.351087 453.790802,263.949487 C454.37901,262.289793 454.855893,260.452347 455.213789,258.426167 C456.520333,251.029327 457.367981,243.657563 457.777134,236.339927 C507.961889,256.30844 537.802671,277.400858 534.791823,294.446407 C529.019129,327.127804 404.668811,332.557002 257.047614,306.572861 C109.426416,280.58872 -5.56451627,233.030905 0.208177287,200.349509 C3.24726646,183.144078 39.1512792,173.491855 94.0136957,172.000006 C91.849674,179.108236 90.0902085,186.423579 88.7653221,193.924261 Z" id="Ring-1" fill="url(#linearGradient-23)" opacity="0.422497736" style="mix-blend-mode: multiply;"></path>
            </g>
            <g id="Abba-Gold" transform="translate(2629.000000, 1095.500000) rotate(-20.000000) translate(-2629.000000, -1095.500000) translate(2500.000000, 996.000000)">
                <g id="Path-17" transform="translate(69.955032, 4.852075)">
                    <mask id="mask-25" fill="white">
                        <use xlink:href="#path-24"></use>
                    </mask>
                    <use id="Mask" fill="#AE955A" xlink:href="#path-24"></use>
                    <path d="M167.095312,34.327082 L151.58174,50.1606293 C147.754264,54.0670496 145.301498,59.1125883 144.593712,64.5355705 L143.054505,76.3288157 C142.150648,83.2540781 138.413333,89.4936707 132.734319,93.5587684 L125.42287,98.7923807 C122.247253,101.06552 119.643417,104.045627 117.816867,107.497499 L101.521811,138.292406 C99.2330372,142.617803 98.2531679,147.516025 98.701838,152.389036 L100.5857,172.849683 C101.432399,182.045685 107.241347,190.041939 115.72522,193.689848 L130.43213,200.013549 C137.509645,203.05675 145.590402,202.695301 152.367955,199.032369 L227.69581,158.321386 C236.644505,153.485059 241.808122,143.742925 240.787039,133.622324 L233.700378,63.3819068 C232.541226,51.8928184 223.72153,42.661628 212.297198,40.9801345 L167.095312,34.327082 L167.095312,34.327082 Z" fill="#DBC184" mask="url(#mask-25)"></path>
                </g>
                <g id="Group" transform="translate(0.215122, 0.001083)">
                    <rect id="Rectangle" stroke="#979797" stroke-width="0.5" fill="#000000" x="0" y="0" width="197.4" height="197.4"></rect>
                    <rect id="Rectangle" stroke="#D0BA9E" stroke-width="1.008" x="5.93278689" y="7.01147541" width="185.534426" height="184.186066"></rect>
                    <g id="ABBA" transform="translate(25.349180, 12.982412)" font-family="AvenirNext-Medium, Avenir Next" font-size="50.4" font-weight="400" letter-spacing="-1.25999997">
                        <g id="Group-9" transform="translate(0.000000, 0.000000)">
                            <g id="Group" transform="translate(0.000000, 0.000000)">
                                <text id="A-BA">
                                    <tspan x="1.63391467" y="50" fill="#CDB989">A </tspan>
                                    <tspan x="46.6411147" y="50" fill="#000000"></tspan>
                                    <tspan x="75.6211148" y="50" fill="#CDB989">BA</tspan>
                                </text>
                                <text id="B" transform="translate(59.888115, 34.000000) scale(-1, 1) translate(-59.888115, -34.000000) " fill="#CDB989">
                                    <tspan x="46" y="50">B</tspan>
                                </text>
                            </g>
                        </g>
                    </g>
                    <text id="GOLD" font-family="AvenirNext-Regular, Avenir Next" font-size="25.2" font-weight="normal" letter-spacing="-0.629999983" fill="#CDB989">
                        <tspan x="60.7736787" y="110.371126">GOLD</tspan>
                    </text>
                    <text id="GREATEST-HITS" font-family="AvenirNext-Medium, Avenir Next" font-size="12.6" font-weight="400" letter-spacing="-0.314999992" fill="#707074">
                        <tspan x="52.869795" y="174.803279">GREATEST HITS</tspan>
                    </text>
                </g>
            </g>
            <g id="UFO" transform="translate(2401.000000, 620.000000)">
                <path d="M418.13514,155.349348 C469.898386,155.338103 523.57523,132.898996 523.582554,99.1944664 C523.589877,65.4899367 463.079449,30.5080304 411.316202,30.5192689 C359.552956,30.5305128 324.573311,62.7869042 324.565988,96.4914339 C324.558665,130.195964 366.371893,155.360586 418.13514,155.349348 Z" id="Oval" fill="#FDFF4A" transform="translate(424.074271, 92.934309) rotate(20.000000) translate(-424.074271, -92.934309) "></path>
                <g id="Path-28" transform="translate(315.000000, 11.000000)">
                    <mask id="mask-27" fill="white">
                        <use xlink:href="#path-26"></use>
                    </mask>
                    <use id="Mask" fill="#03376E" xlink:href="#path-26"></use>
                    <path d="M182.087013,2.00350493 C143.933384,-12.8436665 100.994202,8.34996857 95.3423035,26.5035049 C89.6904051,44.6570413 188.91182,54.1063073 159.04795,76.0035049 C129.18408,97.9007025 20.4596632,61.5453925 2.2500579,94.7618811 C-15.9595474,127.97837 82.1874262,186.175169 87.2680327,206.938622 C92.3486393,227.702075 1.78951744,181.123197 37.9983269,240.858121 C74.2071364,300.593045 50.836759,387.456259 182.087013,363.36477 C313.337268,339.273281 451.253715,251.725397 451.253715,165.003505 C451.253715,78.2816128 220.240643,16.8506764 182.087013,2.00350493 Z" fill="#032B56" mask="url(#mask-27)"></path>
                </g>
                <path d="M308.971168,103 C337.869584,135.67564 364.727817,156.365964 389.545866,165.070972 C414.363916,173.77598 456.430779,178.865673 515.746456,180.34005 C518.173344,194.096633 503.177839,200.633834 470.75994,199.951654 C438.342042,199.269474 408.487488,194.238155 381.196277,184.857698 C366.319184,178.491486 346.706728,166.221547 322.358908,148.047883 C298.011088,129.874218 293.548508,114.858257 308.971168,103 Z" id="Path-26" fill="#E5E640"></path>
                <path d="M241,77.8796477 L252.151105,57.8399369 C288.639911,39.8487576 348.341131,46.5286612 431.254765,77.8796477 C500.451209,104.043943 548.986085,132.595175 576.859395,163.533347 C586.033871,173.716595 588.78583,188.156115 584,201 L584,201 L584,201 C566.978895,159.927966 514.393429,123.9283 426.243603,93.0010042 C338.093777,62.073708 276.34591,57.0332558 241,77.8796477 Z" id="Path-25" fill="#522541"></path>
                <g id="Path-28-Copy" transform="translate(237.000000, 61.000000)">
                    <mask id="mask-29" fill="white">
                        <use xlink:href="#path-28"></use>
                    </mask>
                    <use id="Mask" fill="#AB4058" xlink:href="#path-28"></use>
                    <path d="M268.020323,-115.623683 C219.40391,-125.642411 164.689613,-111.341151 157.487808,-99.0913208 C150.286002,-86.8414905 276.716681,-80.4652173 238.663309,-65.6892006 C200.609937,-50.9131839 62.0702703,-75.4453947 38.8670862,-53.0312302 C15.663902,-30.6170657 140.725498,8.65357026 147.199348,22.6645472 C153.673198,36.6755242 38.2802528,5.24454878 84.4185221,45.5530964 C130.556791,85.861644 280.111874,145 288.555937,117 C297,89 611,52.8862289 611,-5.63286331 C611,-64.1519556 316.636737,-105.604956 268.020323,-115.623683 Z" fill="#822B3F" mask="url(#mask-29)"></path>
                </g>
                <ellipse id="Oval" fill="#FFFFFF" cx="269" cy="91" rx="10" ry="7"></ellipse>
                <path d="M333.392425,99.2985612 L12.8296711,445.145229 C7.19810888,451.220972 7.55818885,460.711619 13.6339322,466.343181 C14.4697786,467.117921 15.3911964,467.794879 16.3803496,468.36095 L321.250352,642.831622 L321.250352,642.831622 C344.606843,656.198049 374.37665,648.099502 387.743078,624.743011 C390.249528,620.363241 392.060415,615.620699 393.110969,610.685011 L489.990083,155.529935 L489.990083,155.529935 C465.717854,136.491687 442.451028,122.703115 420.189606,114.164218 C397.928183,105.625322 368.995789,100.670103 333.392425,99.2985612 Z" id="Path-27" fill="url(#linearGradient-30)"></path>
                <ellipse id="Oval-Copy-8" fill="#FFFFFF" cx="534" cy="208" rx="10" ry="7"></ellipse>
                <ellipse id="Oval-Copy-9" fill="#FFFFFF" transform="translate(512.532913, 146.979862) rotate(41.000000) translate(-512.532913, -146.979862) " cx="512.532913" cy="146.979862" rx="10.0726106" ry="7.01964466"></ellipse>
                <ellipse id="Oval-Copy-11" fill="#FFFFFF" transform="translate(477.755805, 210.151948) rotate(41.000000) translate(-477.755805, -210.151948) " cx="477.755805" cy="210.151948" rx="8.24122685" ry="5.79883688"></ellipse>
                <ellipse id="Oval-Copy-10" fill="#FFFFFF" transform="translate(421.547730, 97.551537) rotate(20.000000) translate(-421.547730, -97.551537) " cx="421.54773" cy="97.5515367" rx="10.074744" ry="7.01815705"></ellipse>
                <ellipse id="Oval-Copy-13" fill="#FFFFFF" transform="translate(400.257831, 198.181166) rotate(20.000000) translate(-400.257831, -198.181166) " cx="400.257831" cy="198.181166" rx="8.24297238" ry="5.79760799"></ellipse>
                <ellipse id="Oval-Copy-12" fill="#FFFFFF" transform="translate(349.492351, 81.685655) rotate(10.000000) translate(-349.492351, -81.685655) " cx="349.492351" cy="81.6856546" rx="10.0753351" ry="7.01774485"></ellipse>
                <ellipse id="Oval-Copy-14" fill="#FFFFFF" transform="translate(327.693596, 165.623084) rotate(10.000000) translate(-327.693596, -165.623084) " cx="327.693596" cy="165.623084" rx="8.24345598" ry="5.79726748"></ellipse>
            </g>
            <path d="M1893.80421,641.192107 C1889.99695,641.86343 1886.63844,640.864447 1886.30278,638.960817 C1885.96712,637.057187 1888.78141,634.969776 1892.58867,634.298453 C1896.39593,633.62713 1899.75443,634.626113 1900.09009,636.529743 C1900.42575,638.433373 1897.61147,640.520784 1893.80421,641.192107 Z" id="Oval" fill="#FFFFFF"></path>
            <path d="M2488.96398,1801 C2440.09518,1801 2407,1771.73747 2407,1723.82677 C2407,1675.91607 2463.10576,1624 2511.97456,1624 C2560.84337,1624 2590,1656.91683 2590,1704.82753 C2590,1752.73823 2537.83279,1801 2488.96398,1801 Z" id="Oval-Copy-15" stroke="#3D3D3D" stroke-width="24"></path>
            <path d="M2485.44289,1804 C2433.90366,1804 2399,1772.91889 2399,1722.03069 C2399,1671.1425 2458.17164,1616 2509.71088,1616 C2561.25011,1616 2592,1650.96251 2592,1701.85071 C2592,1752.73891 2536.98212,1804 2485.44289,1804 Z" id="Oval" stroke="#000000" stroke-width="24"></path>
            <path d="M2567.23834,1800.30375 C2560.36207,1807.29599 2552.0554,1812.71897 2542.88756,1816.20107 L2527.4476,1822.06543 C2522.11589,1824.0905 2516.6207,1825.65574 2511.02215,1826.74402 L2484.67449,1831.86562 C2480.2048,1832.73446 2475.66197,1833.17189 2471.10862,1833.17189 L2470.13528,1833.17189 C2466.892,1833.17189 2465.70623,1828.99272 2465.70623,1825.74943 C2465.70623,1821.9703 2462.85637,1819.87639 2460.31735,1817.07723 L2439.93364,1794.60504 C2438.87882,1793.44214 2437.76831,1792.331 2436.60602,1791.27551 C2436.13157,1790.84466 2436.09623,1790.11076 2436.52708,1789.63631 C2436.69911,1789.44687 2436.92893,1789.31961 2437.18078,1789.27432 L2465.70623,1784.14498 C2468.54178,1783.6351 2471.31146,1782.80987 2473.96367,1781.68465 C2476.59724,1780.56733 2479.42875,1779.99152 2482.28953,1779.99152 L2484.6976,1779.99152 C2489.16533,1779.99152 2493.60535,1779.29008 2497.8555,1777.9128 L2502.00219,1776.56905 C2504.81761,1775.65671 2507.42168,1774.18951 2509.66067,1772.25408 C2511.84898,1770.36245 2514.64496,1769.3215 2517.53754,1769.3215 L2532.62851,1769.3215 C2534.60939,1769.3215 2536.41278,1770.46343 2537.25981,1772.25408 L2537.61972,1773.01494 C2538.29615,1774.44495 2538.647,1776.00717 2538.647,1777.58909 C2538.647,1779.07302 2539.44775,1780.44146 2540.74144,1781.16837 L2541.66025,1781.68465 C2543.65594,1782.80601 2545.81991,1783.59709 2548.06829,1784.02724 L2563.0556,1786.89451 C2567.3766,1787.72118 2570.20933,1791.8942 2569.38266,1796.21521 C2569.08715,1797.75985 2568.34103,1799.18245 2567.23834,1800.30375 Z" id="Path-3" fill="#000000"></path>
            <g id="Path-28" transform="translate(2464.000000, 1750.000000)">
                <mask id="mask-32" fill="white">
                    <use xlink:href="#path-31"></use>
                </mask>
                <use id="Mask" fill="#000000" transform="translate(51.128100, 41.835947) rotate(90.000000) translate(-51.128100, -41.835947) " xlink:href="#path-31"></use>
            </g>
            <path d="M2508.70019,1784.29865 C2512.2045,1792.42895 2514.788,1797.99803 2516.45068,1801.00589 C2519.04071,1805.69136 2522.69606,1812.15588 2523.83104,1817.43261 L2527.56108,1827.25611 C2528.89785,1833.47101 2525.74495,1838.99145 2519.83174,1841.32509 C2513.67906,1843.75323 2506.6646,1842.06977 2502.28414,1837.11368 L2492.98377,1826.59118 C2486.95454,1819.76967 2482.01066,1812.06119 2478.32561,1803.73623 L2474.98014,1796.1784 C2473.50458,1792.84494 2471.84784,1789.59465 2470.01734,1786.44209 L2469.79225,1786.05442 C2468.60897,1784.01654 2469.30177,1781.40527 2471.33966,1780.22199 C2471.73638,1779.99164 2472.16766,1779.82677 2472.61688,1779.73374 L2482.66737,1777.65231 C2492.5596,1775.60366 2501.5523,1777.15994 2508.70019,1784.29865 Z" id="Path-24-Copy" fill="#292929" transform="translate(2498.540096, 1809.621551) rotate(100.000000) translate(-2498.540096, -1809.621551) "></path>
            <g id="stars" transform="translate(2999.000000, 742.000000)" fill="#A167E7">
                <circle id="Oval-Copy-27" cx="389.5" cy="3.5" r="3.5"></circle>
                <circle id="Oval-Copy-28" cx="242.5" cy="158.5" r="8.5"></circle>
                <circle id="Oval-Copy-29" cx="8.5" cy="275.5" r="8.5"></circle>
                <circle id="Oval-Copy-30" cx="322.5" cy="393.5" r="8.5"></circle>
                <circle id="Oval-Copy-31" cx="267.5" cy="517.5" r="8.5"></circle>
            </g>
            <path d="M2424.151,405.768238 L2481.7814,247.430032 L2497.75617,253.244374 L2440.12578,411.582581 C2438.52019,415.993893 2433.64253,418.268383 2429.23122,416.662797 C2424.81991,415.057211 2422.54541,410.179551 2424.151,405.768238 Z" id="Rectangle" fill="url(#linearGradient-33)"></path>
            <path d="M2072.51493,158.338207 L2130.14532,3.26849658e-13 L2146.12009,5.81434244 L2088.4897,164.152549 C2086.88411,168.563861 2082.00645,170.838351 2077.59514,169.232765 C2073.18383,167.627179 2070.90934,162.749519 2072.51493,158.338207 Z" id="Rectangle-Copy-10" fill="url(#linearGradient-33)"></path>
            <path d="M3178.151,1162.76824 L3235.7814,1004.43003 L3251.75617,1010.24437 L3194.12578,1168.58258 C3192.52019,1172.99389 3187.64253,1175.26838 3183.23122,1173.6628 C3178.81991,1172.05721 3176.54541,1167.17955 3178.151,1162.76824 Z" id="Rectangle-Copy-9" fill="url(#linearGradient-33)"></path>
            <mask id="mask-36" fill="white">
                <use xlink:href="#path-35"></use>
            </mask>
            <use id="Mask-Copy" fill="url(#linearGradient-34)" xlink:href="#path-35"></use>
        </g>
    </g>
</svg>